<?xml version="1.0" encoding="utf-8"?>
<!-- Generator: Adobe Illustrator 26.3.1, SVG Export Plug-In . SVG Version: 6.00 Build 0)  -->
<svg version="1.1" id="Layer_1" xmlns="http://www.w3.org/2000/svg" xmlns:xlink="http://www.w3.org/1999/xlink" x="0px" y="0px"
	 viewBox="0 0 24 24" style="enable-background:new 0 0 24 24;" xml:space="preserve">
<style type="text/css">
	.st0{fill:#FFFFFF;}
</style>
<path class="st0" d="M13.3,17.3c-0.2-0.2-0.3-0.5-0.3-0.8s0.1-0.5,0.3-0.8l2.8-2.8H4.9c-0.3,0-0.6-0.1-0.8-0.3
	c-0.2-0.2-0.3-0.5-0.3-0.8s0.1-0.6,0.3-0.8c0.2-0.2,0.5-0.3,0.8-0.3h11.2l-2.8-2.8c-0.2,0-0.3-0.3-0.3-0.6c0-0.3,0.1-0.5,0.3-0.8
	c0.2-0.2,0.4-0.4,0.7-0.4s0.6,0.1,0.8,0.3l4.5,4.5c0.1,0.1,0.2,0.2,0.3,0.4c0.1,0.2,0.1,0.3,0.1,0.4s0,0.3-0.1,0.4
	c-0.1,0.2-0.1,0.3-0.3,0.4l-4.6,4.6c-0.2,0.2-0.5,0.3-0.8,0.3C13.8,17.7,13.5,17.5,13.3,17.3z"/>
</svg>
