<svg width="1440" height="1252" viewBox="0 0 1440 1252" fill="none" xmlns="http://www.w3.org/2000/svg">
<g filter="url(#filter0_dd_35_223)">
<path d="M1381.88 1208.91H58.1173C38.7897 1208.91 22.9762 1193.1 22.9762 1173.77V56.2288C22.9762 36.9002 38.7897 21.0859 58.1173 21.0859H1381.88C1401.21 21.0859 1417.02 36.9002 1417.02 56.2288V1173.77C1417.02 1193.1 1401.21 1208.91 1381.88 1208.91Z" fill="white"/>
<path d="M1381.88 1211.55H58.1173C37.2084 1211.55 20.3406 1194.68 20.3406 1173.77V56.2288C20.3406 35.3188 37.2084 18.4502 58.1173 18.4502H1381.88C1402.79 18.4502 1419.66 35.3188 1419.66 56.2288V1173.77C1419.66 1194.51 1402.79 1211.55 1381.88 1211.55ZM58.1173 23.7216C40.1954 23.7216 25.6118 38.3059 25.6118 56.2288V1173.77C25.6118 1191.69 40.1954 1206.28 58.1173 1206.28H1381.88C1399.8 1206.28 1414.39 1191.69 1414.39 1173.77V56.2288C1414.39 38.3059 1399.8 23.7216 1381.88 23.7216H58.1173Z" fill="#A5E9D6"/>
</g>
<path d="M187.261 149.358V104.551H215.55V112.809H195.87V123.879H213.265V131.962H195.87V149.358H187.261Z" fill="#160647"/>
<path d="M238.918 126.69C238.04 126.514 237.161 126.514 236.458 126.514C232.242 126.514 228.376 128.623 228.376 135.3V149.357H219.942V118.256H228.025V122.824C229.957 118.783 234.174 117.904 236.81 117.904C237.513 117.904 238.216 117.904 238.743 118.08V126.69H238.918Z" fill="#160647"/>
<path d="M272.478 140.396C270.897 145.844 265.977 150.236 258.246 150.236C249.636 150.236 242.257 144.086 242.257 133.544C242.257 123.528 249.636 117.202 257.543 117.202C267.207 117.202 272.83 123.352 272.83 133.368C272.83 134.598 272.654 135.828 272.654 136.004H250.339C250.515 140.045 254.029 143.032 258.246 143.032C262.111 143.032 264.396 141.099 265.274 138.288L272.478 140.396ZM264.747 130.205C264.571 127.042 262.639 124.055 257.719 124.055C253.326 124.055 250.866 127.394 250.691 130.205H264.747Z" fill="#160647"/>
<path d="M307.444 140.396C305.862 145.844 300.942 150.236 293.211 150.236C284.602 150.236 277.222 144.086 277.222 133.544C277.222 123.528 284.602 117.202 292.509 117.202C302.172 117.202 307.795 123.352 307.795 133.368C307.795 134.598 307.619 135.828 307.619 136.004H285.305C285.48 140.045 288.994 143.032 293.211 143.032C297.077 143.032 299.361 141.099 300.24 138.288L307.444 140.396ZM299.712 130.205C299.537 127.042 297.604 124.055 292.684 124.055C288.292 124.055 285.832 127.394 285.656 130.205H299.712Z" fill="#160647"/>
<path d="M319.216 139.166C319.391 141.626 321.324 143.911 324.838 143.911C327.65 143.911 328.88 142.505 328.88 140.748C328.88 139.342 328.001 138.288 325.541 137.761L321.5 136.882C315.526 135.476 312.715 131.962 312.715 127.569C312.715 121.946 317.634 117.378 324.311 117.378C333.097 117.378 336.084 123.001 336.435 126.339L329.407 127.921C329.231 126.164 327.825 123.704 324.311 123.704C322.027 123.704 320.27 125.109 320.27 126.866C320.27 128.448 321.324 129.327 323.081 129.678L327.474 130.557C333.624 131.787 336.786 135.476 336.786 140.045C336.786 145.141 332.921 150.236 324.663 150.236C315.35 150.236 312.012 144.086 311.66 140.572L319.216 139.166Z" fill="#160647"/>
<path d="M354.181 118.256H360.507V125.636H354.181V138.815C354.181 141.451 355.411 142.505 357.871 142.505C358.925 142.505 359.979 142.329 360.507 142.329V149.358C359.804 149.709 358.222 150.061 355.763 150.061C349.613 150.061 345.923 146.371 345.923 140.396V125.988H340.3V118.608H341.882C345.22 118.608 346.626 116.499 346.626 113.688V108.943H354.181V118.256Z" fill="#160647"/>
<path d="M369.995 161.657L377.374 145.492L364.196 118.256H373.684L381.943 136.53L389.674 118.256H398.635L378.956 161.657H369.995Z" fill="#160647"/>
<path d="M403.73 149.358V103.672H412.164V149.358H403.73Z" fill="#160647"/>
<path d="M448.886 140.396C447.305 145.844 442.385 150.236 434.654 150.236C426.045 150.236 418.665 144.086 418.665 133.544C418.665 123.528 426.045 117.202 433.951 117.202C443.615 117.202 449.238 123.352 449.238 133.368C449.238 134.598 449.062 135.828 449.062 136.004H426.748C426.923 140.045 430.437 143.032 434.654 143.032C438.52 143.032 440.804 141.099 441.683 138.288L448.886 140.396ZM441.155 130.205C440.98 127.042 439.047 124.055 434.127 124.055C429.735 124.055 427.275 127.394 427.099 130.205H441.155Z" fill="#160647"/>
<path d="M212.738 208.047H218.009L210.805 234.228H205.534L199.56 215.603L193.586 234.228H188.315L181.111 208.047H186.558L191.302 225.97L197.1 208.047H202.372L208.17 226.145L212.738 208.047Z" fill="#160647"/>
<path d="M225.038 234.228H220.118V207.52H225.038V217.535C226.267 216.13 228.2 215.602 229.957 215.602C234.526 215.602 236.634 218.765 236.634 222.807V234.228H231.714V223.685C231.714 221.577 230.66 219.995 228.376 219.995C226.267 219.995 225.038 221.577 225.038 223.51V234.228Z" fill="#160647"/>
<path d="M245.068 223.861L249.461 223.158C250.515 222.983 250.866 222.455 250.866 221.928C250.866 220.698 249.812 219.644 247.879 219.644C245.771 219.644 244.541 221.05 244.365 222.631L239.973 221.753C240.324 218.941 242.96 215.778 247.704 215.778C253.502 215.778 255.61 218.941 255.61 222.631V231.593C255.61 232.471 255.786 233.877 255.786 234.404H251.218C251.042 233.877 251.042 232.998 251.042 232.295C250.163 233.701 248.406 234.931 245.771 234.931C241.905 234.931 239.621 232.295 239.621 229.484C239.621 225.97 241.905 224.213 245.068 223.861ZM250.866 226.848V225.97L246.825 226.673C245.595 226.848 244.541 227.551 244.541 228.957C244.541 230.011 245.244 231.065 246.825 231.065C248.934 231.065 250.866 230.187 250.866 226.848Z" fill="#160647"/>
<path d="M265.626 216.13H269.315V220.523H265.626V228.078C265.626 229.66 266.328 230.187 267.734 230.187C268.261 230.187 268.964 230.187 269.315 230.011V234.053C268.788 234.228 267.91 234.58 266.504 234.58C262.99 234.58 260.706 232.471 260.706 228.957V220.523H257.367V216.13H258.246C260.179 216.13 261.057 214.9 261.057 213.318V210.858H265.45V216.13H265.626Z" fill="#160647"/>
<path d="M284.953 223.861L289.346 223.158C290.4 222.983 290.751 222.455 290.751 221.928C290.751 220.698 289.697 219.644 287.764 219.644C285.656 219.644 284.426 221.05 284.25 222.631L279.858 221.753C280.209 218.941 282.845 215.778 287.589 215.778C293.387 215.778 295.495 218.941 295.495 222.631V231.593C295.495 232.471 295.671 233.877 295.671 234.404H291.103C290.927 233.877 290.927 232.998 290.927 232.295C290.049 233.701 288.292 234.931 285.656 234.931C281.79 234.931 279.506 232.295 279.506 229.484C279.506 225.97 281.79 224.213 284.953 223.861ZM290.751 226.848V225.97L286.71 226.673C285.48 226.848 284.426 227.551 284.426 228.957C284.426 230.011 285.129 231.065 286.71 231.065C288.819 231.065 290.751 230.187 290.751 226.848Z" fill="#160647"/>
<path d="M310.606 220.874C310.079 220.698 309.552 220.698 309.201 220.698C306.741 220.698 304.457 221.928 304.457 225.794V234.053H299.537V216.13H304.281V218.766C305.335 216.306 307.971 215.954 309.376 215.954C309.728 215.954 310.079 215.954 310.606 215.954V220.874Z" fill="#160647"/>
<path d="M329.231 228.957C328.352 232.12 325.365 234.755 320.973 234.755C316.053 234.755 311.66 231.241 311.66 225.091C311.66 219.293 315.877 215.603 320.621 215.603C326.244 215.603 329.582 219.117 329.582 225.091C329.582 225.794 329.582 226.497 329.582 226.673H316.58C316.756 229.133 318.689 230.89 321.148 230.89C323.433 230.89 324.663 229.66 325.365 228.078L329.231 228.957ZM324.663 223.158C324.663 221.401 323.433 219.644 320.621 219.644C318.161 219.644 316.756 221.577 316.58 223.158H324.663Z" fill="#160647"/>
<path d="M341.706 241.432L345.923 231.943L338.192 216.129H343.639L348.559 226.672L352.951 216.129H358.222L346.801 241.432H341.706Z" fill="#160647"/>
<path d="M377.199 225.091C377.199 230.714 373.157 234.755 367.71 234.755C362.264 234.755 358.222 230.714 358.222 225.091C358.222 219.468 362.264 215.427 367.71 215.427C373.157 215.427 377.199 219.468 377.199 225.091ZM372.279 225.091C372.279 221.577 369.995 219.995 367.71 219.995C365.426 219.995 363.142 221.752 363.142 225.091C363.142 228.43 365.426 230.187 367.71 230.187C369.995 230.187 372.279 228.605 372.279 225.091Z" fill="#160647"/>
<path d="M391.782 232.295C390.728 234.052 388.619 234.755 386.687 234.755C382.294 234.755 379.834 231.592 379.834 227.55V216.129H384.754V226.672C384.754 228.78 385.808 230.362 388.092 230.362C390.201 230.362 391.606 228.956 391.606 226.847V216.305H396.526V231.24C396.526 232.646 396.702 233.876 396.702 234.579H391.958C391.958 233.876 391.782 232.997 391.782 232.295Z" fill="#160647"/>
<path d="M409.001 234.228V207.52H413.921V234.228H409.001Z" fill="#160647"/>
<path d="M435.884 225.091C435.884 230.714 431.843 234.755 426.396 234.755C420.949 234.755 416.908 230.714 416.908 225.091C416.908 219.468 420.949 215.427 426.396 215.427C431.843 215.427 435.884 219.468 435.884 225.091ZM430.964 225.091C430.964 221.577 428.68 219.995 426.396 219.995C424.112 219.995 421.828 221.752 421.828 225.091C421.828 228.43 424.112 230.187 426.396 230.187C428.68 230.187 430.964 228.605 430.964 225.091Z" fill="#160647"/>
<path d="M456.442 225.091C456.442 230.714 452.401 234.755 446.954 234.755C441.507 234.755 437.466 230.714 437.466 225.091C437.466 219.468 441.507 215.427 446.954 215.427C452.401 215.427 456.442 219.468 456.442 225.091ZM451.522 225.091C451.522 221.577 449.238 219.995 446.954 219.995C444.669 219.995 442.385 221.752 442.385 225.091C442.385 228.43 444.669 230.187 446.954 230.187C449.238 230.187 451.522 228.605 451.522 225.091Z" fill="#160647"/>
<path d="M469.795 223.685L477.175 234.228H471.201L466.457 227.375L464.349 229.484V234.228H459.429V207.52H464.349V222.807L470.674 216.13H477.175L469.795 223.685Z" fill="#160647"/>
<path d="M481.568 207.168C483.325 207.168 484.555 208.574 484.555 210.155C484.555 211.737 483.149 213.142 481.568 213.142C479.986 213.142 478.581 211.737 478.581 210.155C478.581 208.398 479.986 207.168 481.568 207.168ZM479.108 234.228V216.129H484.028V234.228H479.108Z" fill="#160647"/>
<path d="M493.34 234.228H488.42V216.13H493.164V218.414C494.218 216.481 496.503 215.603 498.435 215.603C503.004 215.603 504.936 218.765 504.936 222.807V234.228H500.017V223.685C500.017 221.577 498.962 219.995 496.678 219.995C494.57 219.995 493.34 221.577 493.34 223.685V234.228Z" fill="#160647"/>
<path d="M512.14 234.053C512.492 235.985 514.073 237.567 516.357 237.567C519.52 237.567 521.277 235.985 521.277 232.471V231.065C520.574 232.295 518.817 233.35 516.182 233.35C511.262 233.35 507.748 229.66 507.748 224.564C507.748 219.82 511.262 215.778 516.182 215.778C518.993 215.778 520.75 217.008 521.277 218.238V216.13H526.021V232.295C526.021 237.215 523.386 241.784 516.533 241.784C511.613 241.784 508.275 238.621 507.748 235.283L512.14 234.053ZM521.277 224.564C521.277 221.753 519.344 219.995 517.06 219.995C514.6 219.995 512.668 221.753 512.668 224.564C512.668 227.375 514.425 229.133 517.06 229.133C519.52 229.308 521.277 227.375 521.277 224.564Z" fill="#160647"/>
<path d="M544.295 216.13H547.984V220.523H544.295V228.078C544.295 229.66 544.997 230.187 546.403 230.187C546.93 230.187 547.633 230.187 547.984 230.011V234.053C547.457 234.228 546.579 234.58 545.173 234.58C541.659 234.58 539.375 232.471 539.375 228.957V220.523H536.036V216.13H536.915C538.848 216.13 539.726 214.9 539.726 213.318V210.858H544.119V216.13H544.295Z" fill="#160647"/>
<path d="M568.718 225.091C568.718 230.714 564.676 234.755 559.229 234.755C553.783 234.755 549.741 230.714 549.741 225.091C549.741 219.468 553.783 215.427 559.229 215.427C564.676 215.427 568.718 219.468 568.718 225.091ZM563.798 225.091C563.798 221.577 561.514 219.995 559.229 219.995C556.945 219.995 554.661 221.752 554.661 225.091C554.661 228.43 556.945 230.187 559.229 230.187C561.514 230.187 563.798 228.605 563.798 225.091Z" fill="#160647"/>
<path d="M583.477 225.091C583.477 228.43 585.585 230.187 588.045 230.187C590.505 230.187 591.735 228.605 592.262 227.2L596.655 228.605C595.776 231.592 592.965 234.755 588.221 234.755C582.95 234.755 578.733 230.714 578.733 225.091C578.733 219.468 582.95 215.427 588.221 215.427C593.141 215.427 595.952 218.414 596.83 221.577L592.438 222.982C591.911 221.401 590.856 219.995 588.397 219.995C585.585 219.995 583.477 221.928 583.477 225.091Z" fill="#160647"/>
<path d="M610.36 220.874C609.833 220.698 609.306 220.698 608.954 220.698C606.494 220.698 604.21 221.928 604.21 225.794V234.053H599.29V216.13H604.034V218.766C605.089 216.306 607.724 215.954 609.13 215.954C609.481 215.954 609.833 215.954 610.36 215.954V220.874Z" fill="#160647"/>
<path d="M628.985 228.957C628.106 232.12 625.119 234.755 620.726 234.755C615.807 234.755 611.414 231.241 611.414 225.091C611.414 219.293 615.631 215.603 620.375 215.603C625.998 215.603 629.336 219.117 629.336 225.091C629.336 225.794 629.336 226.497 629.336 226.673H616.334C616.509 229.133 618.442 230.89 620.902 230.89C623.186 230.89 624.416 229.66 625.119 228.078L628.985 228.957ZM624.416 223.158C624.416 221.401 623.186 219.644 620.375 219.644C617.915 219.644 616.509 221.577 616.334 223.158H624.416Z" fill="#160647"/>
<path d="M636.54 223.861L640.933 223.158C641.987 222.983 642.338 222.455 642.338 221.928C642.338 220.698 641.284 219.644 639.351 219.644C637.243 219.644 636.013 221.05 635.837 222.631L631.444 221.753C631.796 218.941 634.431 215.778 639.175 215.778C644.974 215.778 647.082 218.941 647.082 222.631V231.593C647.082 232.471 647.258 233.877 647.258 234.404H642.69C642.514 233.877 642.514 232.998 642.514 232.295C641.635 233.701 639.878 234.931 637.243 234.931C633.377 234.931 631.093 232.295 631.093 229.484C631.093 225.97 633.553 224.213 636.54 223.861ZM642.338 226.848V225.97L638.297 226.673C637.067 226.848 636.013 227.551 636.013 228.957C636.013 230.011 636.716 231.065 638.297 231.065C640.405 231.065 642.338 230.187 642.338 226.848Z" fill="#160647"/>
<path d="M657.098 216.13H660.787V220.523H657.098V228.078C657.098 229.66 657.8 230.187 659.206 230.187C659.733 230.187 660.436 230.187 660.787 230.011V234.053C660.26 234.228 659.382 234.58 657.976 234.58C654.462 234.58 652.178 232.471 652.178 228.957V220.523H648.839V216.13H649.718C651.651 216.13 652.529 214.9 652.529 213.318V210.858H656.922V216.13H657.098Z" fill="#160647"/>
<path d="M680.115 228.957C679.236 232.12 676.249 234.755 671.857 234.755C666.937 234.755 662.544 231.241 662.544 225.091C662.544 219.293 666.761 215.603 671.505 215.603C677.128 215.603 680.466 219.117 680.466 225.091C680.466 225.794 680.466 226.497 680.466 226.673H667.464C667.64 229.133 669.573 230.89 672.032 230.89C674.317 230.89 675.547 229.66 676.249 228.078L680.115 228.957ZM675.547 223.158C675.547 221.401 674.317 219.644 671.505 219.644C669.045 219.644 667.64 221.577 667.464 223.158H675.547Z" fill="#160647"/>
<path d="M686.967 226.321C686.967 225.794 686.792 225.442 686.792 224.74C686.792 222.807 687.67 221.05 689.779 219.468L691.536 218.062C692.59 217.184 693.117 216.305 693.117 215.075C693.117 213.318 691.887 211.737 689.427 211.737C686.792 211.737 685.737 213.845 685.737 215.954C685.737 216.481 685.737 216.832 685.913 217.184L681.345 217.008C681.169 216.481 681.169 215.954 681.169 215.427C681.169 211.385 684.156 207.52 689.603 207.52C695.401 207.52 698.388 211.21 698.388 214.9C698.388 217.887 696.983 219.82 694.698 221.401L693.117 222.455C691.887 223.334 691.184 224.564 691.184 225.97V226.145H686.967V226.321ZM689.076 228.605C690.657 228.605 692.063 230.011 692.063 231.592C692.063 233.174 690.657 234.58 689.076 234.58C687.494 234.58 686.089 233.35 686.089 231.592C686.089 229.835 687.494 228.605 689.076 228.605Z" fill="#160647"/>
<path d="M1257.31 355.471H187.788C183.922 355.471 180.76 352.308 180.76 348.443V263.924C180.76 260.058 183.922 256.896 187.788 256.896H1257.48C1261.35 256.896 1264.51 260.058 1264.51 263.924V348.443C1264.34 352.308 1261.17 355.471 1257.31 355.471Z" fill="white"/>
<path d="M1257.31 358.107H187.788C182.517 358.107 178.124 353.714 178.124 348.443V263.924C178.124 258.653 182.517 254.26 187.788 254.26H1257.48C1262.75 254.26 1267.15 258.653 1267.15 263.924V348.443C1266.97 353.714 1262.75 358.107 1257.31 358.107ZM187.788 259.531C185.328 259.531 183.395 261.464 183.395 263.924V348.443C183.395 350.903 185.328 352.835 187.788 352.835H1257.48C1259.94 352.835 1261.88 350.903 1261.88 348.443V263.924C1261.88 261.464 1259.94 259.531 1257.48 259.531H187.788Z" fill="#E5E7EA"/>
<path d="M224.159 312.07L228.903 311.367C229.957 311.192 230.309 310.664 230.309 309.962C230.309 308.204 229.079 306.799 226.443 306.799C223.983 306.799 222.578 308.38 222.402 310.313L219.064 309.61C219.415 306.272 222.578 303.812 226.268 303.812C231.539 303.812 233.647 306.799 233.647 310.313V319.274C233.647 320.856 233.823 321.734 233.823 322.262H230.66C230.66 321.734 230.484 321.207 230.484 319.802C229.782 321.032 228.025 322.789 224.686 322.789C220.996 322.789 218.712 320.329 218.712 317.517C218.888 314.179 221.172 312.422 224.159 312.07ZM230.309 314.53V313.652L224.862 314.53C223.456 314.706 222.226 315.584 222.226 317.166C222.226 318.572 223.281 319.802 225.038 319.802C228.025 319.802 230.309 318.396 230.309 314.53Z" fill="#ADAAC0"/>
<path d="M273.532 322.086V301.703L264.571 322.086H261.233L252.448 301.703V322.086H248.933V295.904H253.853L262.99 317.166L272.302 295.904H277.222V322.086H273.532Z" fill="#ADAAC0"/>
<path d="M298.834 317.166C297.78 320.329 294.968 322.789 290.927 322.789C286.183 322.789 281.966 319.274 281.966 313.3C281.966 307.677 286.007 303.987 290.4 303.987C295.847 303.987 299.01 307.677 299.01 313.3C299.01 313.827 299.01 314.179 299.01 314.354H285.656C285.656 317.517 287.94 319.802 290.927 319.802C293.738 319.802 295.32 318.22 295.847 316.287L298.834 317.166ZM295.32 311.367C295.32 308.907 293.563 306.799 290.4 306.799C287.413 306.799 285.656 309.083 285.48 311.367H295.32Z" fill="#ADAAC0"/>
<path d="M303.402 322.086V304.339H306.741V306.623C307.795 304.69 310.079 303.812 312.187 303.812C314.472 303.812 316.58 304.866 317.459 307.15C318.864 304.69 321.148 303.812 323.433 303.812C326.595 303.812 329.582 305.92 329.582 310.489V322.086H326.068V311.016C326.068 308.732 324.838 306.974 322.378 306.974C319.919 306.974 318.337 308.907 318.337 311.367V322.086H314.823V311.016C314.823 308.732 313.769 306.974 311.133 306.974C308.673 306.974 306.916 308.732 306.916 311.543V322.262H303.402V322.086Z" fill="#ADAAC0"/>
<path d="M351.721 313.3C351.721 318.747 348.031 322.789 342.585 322.789C337.138 322.789 333.448 318.747 333.448 313.3C333.448 307.853 337.138 303.812 342.585 303.812C348.031 303.812 351.721 307.853 351.721 313.3ZM348.031 313.3C348.031 309.259 345.396 306.974 342.585 306.974C339.773 306.974 337.138 309.259 337.138 313.3C337.138 317.517 339.773 319.626 342.585 319.626C345.396 319.626 348.031 317.342 348.031 313.3Z" fill="#ADAAC0"/>
<path d="M365.953 307.853C365.426 307.853 364.899 307.677 364.372 307.677C361.385 307.677 359.452 309.259 359.452 313.124V322.086H355.938V304.339H359.277V307.502C360.507 304.69 362.791 304.163 364.548 304.163C365.075 304.163 365.426 304.163 365.778 304.339V307.853H365.953Z" fill="#ADAAC0"/>
<path d="M371.4 295.201C372.806 295.201 373.86 296.255 373.86 297.661C373.86 299.067 372.806 300.121 371.4 300.121C369.995 300.121 368.94 299.067 368.94 297.661C368.94 296.255 369.995 295.201 371.4 295.201ZM369.643 322.085V304.338H373.157V322.085H369.643Z" fill="#ADAAC0"/>
<path d="M383.173 312.07L387.917 311.367C388.971 311.192 389.322 310.664 389.322 309.962C389.322 308.204 388.092 306.799 385.457 306.799C382.997 306.799 381.591 308.38 381.415 310.313L378.077 309.61C378.428 306.272 381.591 303.812 385.281 303.812C390.552 303.812 392.661 306.799 392.661 310.313V319.274C392.661 320.856 392.836 321.734 392.836 322.262H389.498C389.498 321.734 389.322 321.207 389.322 319.802C388.619 321.032 386.862 322.789 383.524 322.789C379.834 322.789 377.55 320.329 377.55 317.517C377.901 314.179 380.186 312.422 383.173 312.07ZM389.322 314.53V313.652L383.875 314.53C382.47 314.706 381.24 315.584 381.24 317.166C381.24 318.572 382.294 319.802 384.051 319.802C387.038 319.802 389.322 318.396 389.322 314.53Z" fill="#ADAAC0"/>
<path d="M398.283 322.086V295.377H401.797V322.086H398.283Z" fill="#ADAAC0"/>
<path d="M417.259 322.086V295.904H426.396C433.073 295.904 438.871 300.473 438.871 309.083C438.871 317.693 433.073 322.086 426.396 322.086H417.259ZM426.22 318.923C431.14 318.923 435.181 315.76 435.181 309.083C435.181 302.406 431.14 299.243 426.396 299.243H420.949V318.923H426.22Z" fill="#ADAAC0"/>
<path d="M447.656 312.07L452.4 311.367C453.455 311.192 453.806 310.664 453.806 309.962C453.806 308.204 452.576 306.799 449.941 306.799C447.481 306.799 446.075 308.38 445.899 310.313L442.561 309.61C442.912 306.272 446.075 303.812 449.765 303.812C455.036 303.812 457.145 306.799 457.145 310.313V319.274C457.145 320.856 457.32 321.734 457.32 322.262H453.982C453.982 321.734 453.806 321.207 453.806 319.802C453.103 321.032 451.346 322.789 448.008 322.789C444.318 322.789 442.034 320.329 442.034 317.517C442.385 314.179 444.669 312.422 447.656 312.07ZM453.806 314.53V313.652L448.359 314.53C446.954 314.706 445.724 315.584 445.724 317.166C445.724 318.572 446.778 319.802 448.535 319.802C451.522 319.802 453.806 318.396 453.806 314.53Z" fill="#ADAAC0"/>
<path d="M462.943 329.641L467.335 320.328L459.78 304.514H463.821L469.268 316.814L474.539 304.514H478.229L466.633 329.641H462.943Z" fill="#ADAAC0"/>
<path d="M492.286 316.463C492.461 318.22 493.867 319.802 496.503 319.802C498.435 319.802 499.49 318.747 499.49 317.517C499.49 316.463 498.611 315.584 497.205 315.233L494.218 314.53C491.407 314.003 489.826 312.07 489.826 309.61C489.826 306.623 492.637 303.987 496.151 303.987C501.071 303.987 502.477 307.15 502.828 308.732L499.841 309.962C499.665 309.083 498.962 306.974 496.151 306.974C494.394 306.974 493.164 308.204 493.164 309.259C493.164 310.313 493.867 311.016 495.273 311.367L498.084 312.07C501.247 312.773 503.004 314.706 503.004 317.342C503.004 319.802 500.895 322.789 496.503 322.789C491.583 322.789 489.65 319.626 489.299 317.693L492.286 316.463Z" fill="#ADAAC0"/>
<path d="M511.438 312.07L516.182 311.367C517.236 311.192 517.587 310.664 517.587 309.962C517.587 308.204 516.357 306.799 513.722 306.799C511.262 306.799 509.856 308.38 509.68 310.313L506.342 309.61C506.694 306.272 509.856 303.812 513.546 303.812C518.817 303.812 520.926 306.799 520.926 310.313V319.274C520.926 320.856 521.101 321.734 521.101 322.262H517.763C517.763 321.734 517.587 321.207 517.587 319.802C516.884 321.032 515.127 322.789 511.789 322.789C508.099 322.789 505.815 320.329 505.815 317.517C505.991 314.179 508.451 312.422 511.438 312.07ZM517.587 314.53V313.652L512.14 314.53C510.735 314.706 509.505 315.584 509.505 317.166C509.505 318.572 510.559 319.802 512.316 319.802C515.303 319.802 517.587 318.396 517.587 314.53Z" fill="#ADAAC0"/>
<path d="M526.548 322.086V295.377H530.062V322.086H526.548Z" fill="#ADAAC0"/>
<path d="M551.323 317.166C550.268 320.329 547.457 322.789 543.416 322.789C538.672 322.789 534.455 319.274 534.455 313.3C534.455 307.677 538.496 303.987 542.889 303.987C548.336 303.987 551.498 307.677 551.498 313.3C551.498 313.827 551.498 314.179 551.498 314.354H538.145C538.145 317.517 540.429 319.802 543.416 319.802C546.227 319.802 547.809 318.22 548.336 316.287L551.323 317.166ZM547.809 311.367C547.809 308.907 546.052 306.799 542.889 306.799C539.902 306.799 538.145 309.083 537.969 311.367H547.809Z" fill="#ADAAC0"/>
<path d="M580.49 317.166C579.436 320.329 576.624 322.789 572.583 322.789C567.839 322.789 563.622 319.274 563.622 313.3C563.622 307.677 567.663 303.987 572.056 303.987C577.503 303.987 580.666 307.677 580.666 313.3C580.666 313.827 580.666 314.179 580.666 314.354H567.312C567.312 317.517 569.596 319.802 572.583 319.802C575.394 319.802 576.976 318.22 577.503 316.287L580.49 317.166ZM576.976 311.367C576.976 308.907 575.219 306.799 572.056 306.799C569.069 306.799 567.312 309.083 567.136 311.367H576.976Z" fill="#ADAAC0"/>
<path d="M585.058 322.086V304.339H588.397V306.623C589.451 304.69 591.735 303.812 593.843 303.812C596.128 303.812 598.236 304.866 599.115 307.15C600.52 304.69 602.804 303.812 605.089 303.812C608.251 303.812 611.238 305.92 611.238 310.489V322.086H607.724V311.016C607.724 308.732 606.494 306.974 604.034 306.974C601.574 306.974 599.993 308.907 599.993 311.367V322.086H596.479V311.016C596.479 308.732 595.425 306.974 592.789 306.974C590.329 306.974 588.572 308.732 588.572 311.543V322.262H585.058V322.086Z" fill="#ADAAC0"/>
<path d="M620.902 312.07L625.646 311.367C626.7 311.192 627.052 310.664 627.052 309.962C627.052 308.204 625.822 306.799 623.186 306.799C620.726 306.799 619.321 308.38 619.145 310.313L615.807 309.61C616.158 306.272 619.321 303.812 623.011 303.812C628.282 303.812 630.39 306.799 630.39 310.313V319.274C630.39 320.856 630.566 321.734 630.566 322.262H627.228C627.228 321.734 627.052 321.207 627.052 319.802C626.349 321.032 624.592 322.789 621.253 322.789C617.564 322.789 615.28 320.329 615.28 317.517C615.631 314.179 617.915 312.422 620.902 312.07ZM627.052 314.53V313.652L621.605 314.53C620.199 314.706 618.969 315.584 618.969 317.166C618.969 318.572 620.024 319.802 621.781 319.802C624.768 319.802 627.052 318.396 627.052 314.53Z" fill="#ADAAC0"/>
<path d="M637.77 295.201C639.176 295.201 640.23 296.255 640.23 297.661C640.23 299.067 639.176 300.121 637.77 300.121C636.364 300.121 635.31 299.067 635.31 297.661C635.134 296.255 636.364 295.201 637.77 295.201ZM636.013 322.085V304.338H639.527V322.085H636.013Z" fill="#ADAAC0"/>
<path d="M645.325 322.086V295.377H648.839V322.086H645.325Z" fill="#ADAAC0"/>
<path d="M212.738 409.415H218.009L210.805 435.596H205.534L199.56 416.971L193.586 435.596H188.315L181.111 409.415H186.558L191.302 427.338L197.1 409.415H202.372L208.17 427.514L212.738 409.415Z" fill="#160647"/>
<path d="M225.038 435.42H220.118V408.712H225.038V418.728C226.267 417.322 228.2 416.795 229.957 416.795C234.526 416.795 236.634 419.958 236.634 423.999V435.42H231.714V424.878C231.714 422.769 230.66 421.188 228.376 421.188C226.267 421.188 225.038 422.769 225.038 424.702V435.42Z" fill="#160647"/>
<path d="M245.068 425.054L249.461 424.351C250.515 424.175 250.866 423.648 250.866 423.121C250.866 421.891 249.812 420.836 247.879 420.836C245.771 420.836 244.541 422.242 244.365 423.824L239.973 422.945C240.324 420.134 242.96 416.971 247.704 416.971C253.502 416.971 255.61 420.134 255.61 423.824V432.785C255.61 433.664 255.786 435.069 255.786 435.596H251.218C251.042 435.069 251.042 434.191 251.042 433.488C250.163 434.894 248.406 436.124 245.771 436.124C241.905 436.124 239.621 433.488 239.621 430.676C239.621 427.338 241.905 425.581 245.068 425.054ZM250.866 428.216V427.338L246.825 428.041C245.595 428.216 244.541 428.919 244.541 430.325C244.541 431.379 245.244 432.434 246.825 432.434C248.934 432.434 250.866 431.379 250.866 428.216Z" fill="#160647"/>
<path d="M265.626 417.322H269.315V421.715H265.626V429.271C265.626 430.852 266.328 431.379 267.734 431.379C268.261 431.379 268.964 431.379 269.315 431.204V435.245C268.788 435.421 267.91 435.772 266.504 435.772C262.99 435.772 260.706 433.664 260.706 430.149V421.715H257.367V417.322H258.246C260.179 417.322 261.057 416.092 261.057 414.511V412.051H265.45V417.322H265.626Z" fill="#160647"/>
<path d="M284.953 425.054L289.346 424.351C290.4 424.175 290.751 423.648 290.751 423.121C290.751 421.891 289.697 420.836 287.764 420.836C285.656 420.836 284.426 422.242 284.25 423.824L279.858 422.945C280.209 420.134 282.845 416.971 287.589 416.971C293.387 416.971 295.495 420.134 295.495 423.824V432.785C295.495 433.664 295.671 435.069 295.671 435.596H291.103C290.927 435.069 290.927 434.191 290.927 433.488C290.049 434.894 288.292 436.124 285.656 436.124C281.79 436.124 279.506 433.488 279.506 430.676C279.506 427.338 281.79 425.581 284.953 425.054ZM290.751 428.216V427.338L286.71 428.041C285.48 428.216 284.426 428.919 284.426 430.325C284.426 431.379 285.129 432.434 286.71 432.434C288.819 432.434 290.751 431.379 290.751 428.216Z" fill="#160647"/>
<path d="M310.606 422.242C310.079 422.067 309.552 422.066 309.201 422.066C306.741 422.066 304.457 423.297 304.457 427.162V435.421H299.537V417.322H304.281V419.958C305.335 417.498 307.971 417.146 309.376 417.146C309.728 417.146 310.079 417.146 310.606 417.146V422.242Z" fill="#160647"/>
<path d="M329.231 430.325C328.352 433.488 325.365 436.124 320.973 436.124C316.053 436.124 311.66 432.609 311.66 426.459C311.66 420.661 315.877 416.971 320.621 416.971C326.244 416.971 329.582 420.485 329.582 426.459C329.582 427.162 329.582 427.865 329.582 428.041H316.58C316.756 430.501 318.689 432.258 321.148 432.258C323.433 432.258 324.663 431.028 325.365 429.446L329.231 430.325ZM324.663 424.351C324.663 422.594 323.433 420.836 320.621 420.836C318.161 420.836 316.756 422.769 316.58 424.351H324.663Z" fill="#160647"/>
<path d="M346.626 417.322H350.316V421.715H346.626V429.271C346.626 430.852 347.329 431.379 348.734 431.379C349.261 431.379 349.964 431.379 350.316 431.204V435.245C349.789 435.421 348.91 435.772 347.504 435.772C343.99 435.772 341.706 433.664 341.706 430.149V421.715H338.368V417.322H339.246C341.179 417.322 342.057 416.092 342.057 414.511V412.051H346.45V417.322H346.626Z" fill="#160647"/>
<path d="M357.695 435.42H352.776V408.712H357.695V418.728C358.925 417.322 360.858 416.795 362.615 416.795C367.183 416.795 369.292 419.958 369.292 423.999V435.42H364.372V424.878C364.372 422.769 363.318 421.188 361.034 421.188C358.925 421.188 357.695 422.769 357.695 424.702V435.42Z" fill="#160647"/>
<path d="M389.674 430.325C388.795 433.488 385.808 436.124 381.415 436.124C376.496 436.124 372.103 432.609 372.103 426.459C372.103 420.661 376.32 416.971 381.064 416.971C386.687 416.971 390.025 420.485 390.025 426.459C390.025 427.162 390.025 427.865 390.025 428.041H377.023C377.199 430.501 379.131 432.258 381.591 432.258C383.875 432.258 385.105 431.028 385.808 429.446L389.674 430.325ZM385.105 424.351C385.105 422.594 383.875 420.836 381.064 420.836C378.604 420.836 377.199 422.769 377.023 424.351H385.105Z" fill="#160647"/>
<path d="M401.095 435.421V417.322H405.839V419.606C406.893 417.849 409.177 416.795 411.11 416.795C413.57 416.795 415.502 417.849 416.557 419.782C417.962 417.498 419.895 416.795 422.355 416.795C425.693 416.795 428.856 418.904 428.856 423.648V435.421H423.936V424.702C423.936 422.769 423.058 421.188 420.774 421.188C418.665 421.188 417.435 422.769 417.435 424.702V435.245H412.515V424.526C412.515 422.594 411.461 421.012 409.353 421.012C407.244 421.012 406.014 422.594 406.014 424.526V435.069H401.095V435.421Z" fill="#160647"/>
<path d="M437.114 425.054L441.507 424.351C442.561 424.175 442.912 423.648 442.912 423.121C442.912 421.891 441.858 420.836 439.925 420.836C437.817 420.836 436.587 422.242 436.411 423.824L432.019 422.945C432.37 420.134 435.006 416.971 439.75 416.971C445.548 416.971 447.656 420.134 447.656 423.824V432.785C447.656 433.664 447.832 435.069 447.832 435.596H443.264C443.088 435.069 443.088 434.191 443.088 433.488C442.21 434.894 440.453 436.124 437.817 436.124C433.951 436.124 431.667 433.488 431.667 430.676C431.667 427.338 434.127 425.581 437.114 425.054ZM442.912 428.216V427.338L438.871 428.041C437.641 428.216 436.587 428.919 436.587 430.325C436.587 431.379 437.29 432.434 438.871 432.434C440.98 432.434 442.912 431.379 442.912 428.216Z" fill="#160647"/>
<path d="M454.158 408.36C455.915 408.36 457.145 409.766 457.145 411.348C457.145 412.929 455.739 414.335 454.158 414.335C452.576 414.335 451.171 412.929 451.171 411.348C451.171 409.766 452.576 408.36 454.158 408.36ZM451.698 435.42V417.322H456.617V435.42H451.698Z" fill="#160647"/>
<path d="M465.93 435.421H461.01V417.322H465.754V419.606C466.808 417.674 469.093 416.795 471.025 416.795C475.594 416.795 477.526 419.958 477.526 423.999V435.421H472.607V424.878C472.607 422.769 471.552 421.188 469.268 421.188C467.16 421.188 465.93 422.769 465.93 424.878V435.421Z" fill="#160647"/>
<path d="M489.826 442.449V417.322H494.57V419.606C495.448 418.201 497.381 416.971 500.192 416.971C505.464 416.971 508.626 421.012 508.626 426.459C508.626 431.906 505.112 435.948 500.017 435.948C497.557 435.948 495.624 434.894 494.746 433.664V442.449H489.826ZM499.138 421.364C496.678 421.364 494.57 423.296 494.57 426.459C494.57 429.622 496.678 431.555 499.138 431.555C501.598 431.555 503.707 429.622 503.707 426.459C503.707 423.296 501.598 421.364 499.138 421.364Z" fill="#160647"/>
<path d="M529.184 426.459C529.184 432.082 525.143 436.123 519.696 436.123C514.249 436.123 510.208 432.082 510.208 426.459C510.208 420.836 514.249 416.795 519.696 416.795C525.143 416.795 529.184 420.836 529.184 426.459ZM524.264 426.459C524.264 422.945 521.98 421.364 519.696 421.364C517.412 421.364 515.127 423.121 515.127 426.459C515.127 429.798 517.412 431.555 519.696 431.555C521.98 431.555 524.264 429.798 524.264 426.459Z" fill="#160647"/>
<path d="M534.455 408.36C536.212 408.36 537.442 409.766 537.442 411.348C537.442 412.929 536.036 414.335 534.455 414.335C532.874 414.335 531.468 412.929 531.468 411.348C531.468 409.766 532.874 408.36 534.455 408.36ZM531.995 435.42V417.322H536.915V435.42H531.995Z" fill="#160647"/>
<path d="M546.227 435.421H541.307V417.322H546.052V419.606C547.106 417.674 549.39 416.795 551.323 416.795C555.891 416.795 557.824 419.958 557.824 423.999V435.421H552.904V424.878C552.904 422.769 551.85 421.188 549.566 421.188C547.457 421.188 546.227 422.769 546.227 424.878V435.421Z" fill="#160647"/>
<path d="M568.015 417.322H571.705V421.715H568.015V429.271C568.015 430.852 568.718 431.379 570.123 431.379C570.65 431.379 571.353 431.379 571.705 431.204V435.245C571.177 435.421 570.299 435.772 568.893 435.772C565.379 435.772 563.095 433.664 563.095 430.149V421.715H559.757V417.322H560.635C562.568 417.322 563.446 416.092 563.446 414.511V412.051H567.839V417.322H568.015Z" fill="#160647"/>
<path d="M577.854 429.446C578.03 430.852 579.084 432.258 581.193 432.258C582.774 432.258 583.653 431.379 583.653 430.501C583.653 429.622 583.125 429.095 581.72 428.743L579.26 428.216C575.746 427.513 574.164 425.405 574.164 422.769C574.164 419.606 576.976 416.795 581.017 416.795C586.112 416.795 587.869 420.133 588.221 422.066L584.18 422.945C584.004 421.891 583.301 420.485 581.193 420.485C579.963 420.485 578.909 421.188 578.909 422.242C578.909 423.121 579.611 423.648 580.49 423.823L583.125 424.351C586.64 425.053 588.572 427.338 588.572 429.973C588.572 432.961 586.288 435.948 581.544 435.948C576.097 435.948 574.164 432.433 573.989 430.325L577.854 429.446Z" fill="#160647"/>
<path d="M600.696 442.625L604.913 433.137L597.182 417.322H602.629L607.548 427.865L611.941 417.322H617.212L605.791 442.625H600.696Z" fill="#160647"/>
<path d="M636.188 426.459C636.188 432.082 632.147 436.123 626.7 436.123C621.254 436.123 617.212 432.082 617.212 426.459C617.212 420.836 621.254 416.795 626.7 416.795C632.147 416.795 636.188 420.836 636.188 426.459ZM631.269 426.459C631.269 422.945 628.985 421.364 626.7 421.364C624.416 421.364 622.132 423.121 622.132 426.459C622.132 429.798 624.416 431.555 626.7 431.555C628.985 431.555 631.269 429.798 631.269 426.459Z" fill="#160647"/>
<path d="M650.772 433.488C649.718 435.245 647.609 435.948 645.677 435.948C641.284 435.948 638.824 432.785 638.824 428.744V417.322H643.744V427.865C643.744 429.974 644.798 431.555 647.082 431.555C649.191 431.555 650.596 430.149 650.596 428.041V417.498H655.516V432.434C655.516 433.839 655.692 435.069 655.692 435.772H650.948C650.772 435.069 650.772 434.367 650.772 433.488Z" fill="#160647"/>
<path d="M683.278 417.322L687.143 429.095L690.481 417.322H695.401L689.779 435.421H684.859L680.642 422.945L676.425 435.421H671.505L665.707 417.322H670.802L674.141 428.919L678.006 417.322H683.278Z" fill="#160647"/>
<path d="M701.902 425.054L706.295 424.351C707.349 424.175 707.701 423.648 707.701 423.121C707.701 421.891 706.646 420.836 704.714 420.836C702.605 420.836 701.375 422.242 701.2 423.824L696.807 422.945C697.158 420.134 699.794 416.971 704.538 416.971C710.336 416.971 712.445 420.134 712.445 423.824V432.785C712.445 433.664 712.62 435.069 712.62 435.596H708.052C707.876 435.069 707.876 434.191 707.876 433.488C706.998 434.894 705.241 436.124 702.605 436.124C698.74 436.124 696.456 433.488 696.456 430.676C696.456 427.338 698.915 425.581 701.902 425.054ZM707.701 428.216V427.338L703.659 428.041C702.43 428.216 701.375 428.919 701.375 430.325C701.375 431.379 702.078 432.434 703.659 432.434C705.768 432.434 707.701 431.379 707.701 428.216Z" fill="#160647"/>
<path d="M721.406 435.421H716.486V417.322H721.23V419.606C722.284 417.674 724.568 416.795 726.501 416.795C731.07 416.795 733.002 419.958 733.002 423.999V435.421H728.083V424.878C728.083 422.769 727.028 421.188 724.744 421.188C722.636 421.188 721.406 422.769 721.406 424.878V435.421Z" fill="#160647"/>
<path d="M743.193 417.322H746.883V421.715H743.193V429.271C743.193 430.852 743.896 431.379 745.302 431.379C745.829 431.379 746.532 431.379 746.883 431.204V435.245C746.356 435.421 745.477 435.772 744.072 435.772C740.558 435.772 738.273 433.664 738.273 430.149V421.715H734.935V417.322H735.814C737.746 417.322 738.625 416.092 738.625 414.511V412.051H743.018V417.322H743.193Z" fill="#160647"/>
<path d="M764.278 417.322H767.968V421.715H764.278V429.271C764.278 430.852 764.981 431.379 766.386 431.379C766.913 431.379 767.616 431.379 767.968 431.204V435.245C767.441 435.421 766.562 435.772 765.156 435.772C761.642 435.772 759.358 433.664 759.358 430.149V421.715H756.02V417.322H756.898C758.831 417.322 759.71 416.092 759.71 414.511V412.051H764.102V417.322H764.278Z" fill="#160647"/>
<path d="M788.701 426.459C788.701 432.082 784.66 436.123 779.213 436.123C773.766 436.123 769.725 432.082 769.725 426.459C769.725 420.836 773.766 416.795 779.213 416.795C784.66 416.795 788.701 420.836 788.701 426.459ZM783.781 426.459C783.781 422.945 781.497 421.364 779.213 421.364C776.929 421.364 774.645 423.121 774.645 426.459C774.645 429.798 776.929 431.555 779.213 431.555C781.497 431.555 783.781 429.798 783.781 426.459Z" fill="#160647"/>
<path d="M803.284 426.459C803.284 429.798 805.393 431.555 807.853 431.555C810.313 431.555 811.543 429.973 812.07 428.568L816.462 429.973C815.584 432.961 812.773 436.123 808.029 436.123C802.757 436.123 798.54 432.082 798.54 426.459C798.54 420.836 802.757 416.795 808.029 416.795C812.948 416.795 815.76 419.782 816.638 422.945L812.245 424.351C811.718 422.769 810.664 421.364 808.204 421.364C805.393 421.364 803.284 423.121 803.284 426.459Z" fill="#160647"/>
<path d="M836.668 426.459C836.668 432.082 832.627 436.123 827.18 436.123C821.733 436.123 817.692 432.082 817.692 426.459C817.692 420.836 821.733 416.795 827.18 416.795C832.627 416.795 836.668 420.836 836.668 426.459ZM831.749 426.459C831.749 422.945 829.465 421.364 827.18 421.364C824.896 421.364 822.612 423.121 822.612 426.459C822.612 429.798 824.896 431.555 827.18 431.555C829.465 431.555 831.749 429.798 831.749 426.459Z" fill="#160647"/>
<path d="M849.144 435.421H844.224L836.844 417.322H842.291L846.859 429.447L851.252 417.322H856.348L849.144 435.421Z" fill="#160647"/>
<path d="M873.918 430.325C873.039 433.488 870.052 436.124 865.66 436.124C860.74 436.124 856.347 432.609 856.347 426.459C856.347 420.661 860.564 416.971 865.308 416.971C870.931 416.971 874.269 420.485 874.269 426.459C874.269 427.162 874.269 427.865 874.269 428.041H861.267C861.443 430.501 863.376 432.258 865.836 432.258C868.12 432.258 869.35 431.028 870.052 429.446L873.918 430.325ZM869.35 424.351C869.35 422.594 868.12 420.836 865.308 420.836C862.849 420.836 861.443 422.769 861.267 424.351H869.35Z" fill="#160647"/>
<path d="M888.15 422.242C887.623 422.067 887.096 422.066 886.745 422.066C884.285 422.066 882.001 423.297 882.001 427.162V435.421H877.081V417.322H881.825V419.958C882.879 417.498 885.515 417.146 886.92 417.146C887.272 417.146 887.623 417.146 888.15 417.146V422.242Z" fill="#160647"/>
<path d="M895.881 427.513C895.881 426.986 895.706 426.635 895.706 425.932C895.706 423.999 896.584 422.242 898.693 420.66L900.45 419.255C901.504 418.376 902.031 417.498 902.031 416.268C902.031 414.51 900.801 412.929 898.341 412.929C895.706 412.929 894.651 415.038 894.651 417.146C894.651 417.673 894.651 418.025 894.827 418.376L890.259 418.2C890.083 417.673 890.083 417.146 890.083 416.619C890.083 412.578 893.07 408.712 898.517 408.712C904.315 408.712 907.302 412.402 907.302 416.092C907.302 419.079 905.897 421.012 903.612 422.593L902.031 423.648C900.801 424.526 900.098 425.756 900.098 427.162V427.338H895.881V427.513ZM897.99 429.973C899.571 429.973 900.977 431.379 900.977 432.96C900.977 434.542 899.571 435.948 897.99 435.948C896.408 435.948 895.003 434.718 895.003 432.96C895.003 431.203 896.408 429.973 897.99 429.973Z" fill="#160647"/>
<path d="M1257.31 679.839H187.788C183.922 679.839 180.76 676.676 180.76 672.811V465.116C180.76 461.251 183.922 458.088 187.788 458.088H1257.48C1261.35 458.088 1264.51 461.251 1264.51 465.116V672.811C1264.34 676.676 1261.17 679.839 1257.31 679.839Z" fill="white"/>
<path d="M1257.31 682.475H187.788C182.517 682.475 178.124 678.082 178.124 672.811V465.116C178.124 459.845 182.517 455.452 187.788 455.452H1257.48C1262.75 455.452 1267.15 459.845 1267.15 465.116V672.811C1266.97 678.082 1262.75 682.475 1257.31 682.475ZM187.788 460.724C185.328 460.724 183.395 462.656 183.395 465.116V672.811C183.395 675.271 185.328 677.204 187.788 677.204H1257.48C1259.94 677.204 1261.88 675.271 1261.88 672.811V465.116C1261.88 462.656 1259.94 460.724 1257.48 460.724H187.788Z" fill="#47BEB9"/>
<path d="M223.983 512.735V523.454H220.294V497.272H229.782C234.701 497.272 237.864 500.611 237.864 505.004C237.864 509.397 234.701 512.735 229.782 512.735H223.983ZM229.079 509.397C232.242 509.397 234.174 507.64 234.174 505.004C234.174 502.192 232.242 500.435 229.079 500.435H223.808V509.397H229.079Z" fill="#160647"/>
<path d="M251.218 509.22C250.691 509.22 250.164 509.045 249.636 509.045C246.649 509.045 244.717 510.626 244.717 514.492V523.453H241.203V505.706H244.541V508.869C245.771 506.057 248.055 505.53 249.812 505.53C250.339 505.53 250.691 505.53 251.042 505.706V509.22H251.218Z" fill="#160647"/>
<path d="M271.424 514.492C271.424 519.94 267.734 523.981 262.287 523.981C256.84 523.981 253.15 519.94 253.15 514.492C253.15 509.045 256.84 505.004 262.287 505.004C267.734 505.004 271.424 509.221 271.424 514.492ZM267.91 514.492C267.91 510.451 265.274 508.167 262.463 508.167C259.652 508.167 257.016 510.451 257.016 514.492C257.016 518.71 259.652 520.818 262.463 520.818C265.274 520.818 267.91 518.71 267.91 514.492Z" fill="#160647"/>
<path d="M288.292 520.642C287.413 522.399 285.48 523.805 282.845 523.805C277.574 523.805 274.411 519.588 274.411 514.316C274.411 509.221 277.749 505.004 282.845 505.004C286.007 505.004 287.764 506.585 288.292 507.991V496.569H291.806V520.115C291.806 521.872 291.981 523.102 291.981 523.454H288.643C288.643 523.102 288.467 522.048 288.467 520.994V520.642H288.292ZM283.196 520.818C286.359 520.818 288.292 518.006 288.292 514.316C288.292 510.626 286.359 508.166 283.196 508.166C280.033 508.166 277.925 510.802 277.925 514.316C277.925 518.182 279.858 520.818 283.196 520.818Z" fill="#160647"/>
<path d="M303.754 523.98C299.537 523.98 297.077 520.817 297.077 516.776V505.53H300.591V516.249C300.591 518.709 301.645 520.817 304.632 520.817C307.443 520.817 308.849 519.06 308.849 516.249V505.53H312.363V519.939C312.363 521.345 312.539 522.575 312.539 523.277H309.201C309.201 522.926 309.025 521.872 309.025 521.169C308.146 523.102 305.862 523.98 303.754 523.98Z" fill="#160647"/>
<path d="M320.094 514.492C320.094 518.534 322.554 520.642 325.541 520.642C328.88 520.642 330.11 518.358 330.461 516.952L333.448 518.358C332.569 520.818 330.109 523.805 325.365 523.805C320.27 523.805 316.404 519.764 316.404 514.317C316.404 508.87 320.27 504.828 325.365 504.828C330.109 504.828 332.569 507.815 333.272 510.451L330.11 511.857C329.582 510.1 328.352 508.167 325.365 508.167C322.73 508.342 320.094 510.451 320.094 514.492Z" fill="#160647"/>
<path d="M342.233 505.707H346.099V508.87H342.233V518.007C342.233 519.588 342.936 520.467 344.693 520.467C345.22 520.467 345.747 520.467 346.099 520.291V523.278C345.747 523.454 344.869 523.63 343.814 523.63C340.827 523.63 338.895 521.873 338.895 518.534V508.87H335.556V505.707H336.435C338.368 505.707 339.246 504.477 339.246 502.895V500.084H342.409V505.707H342.233Z" fill="#160647"/>
<path d="M353.127 505.53C354.533 505.53 355.763 506.76 355.763 508.166C355.763 509.572 354.533 510.626 353.127 510.626C351.721 510.626 350.667 509.572 350.667 508.166C350.491 506.585 351.721 505.53 353.127 505.53ZM353.127 518.533C354.533 518.533 355.763 519.763 355.763 521.169C355.763 522.575 354.533 523.629 353.127 523.629C351.721 523.629 350.667 522.575 350.667 521.169C350.667 519.587 351.721 518.533 353.127 518.533Z" fill="#160647"/>
<path d="M369.292 510.275C369.292 501.489 375.793 496.745 382.294 496.745C388.268 496.745 392.485 499.908 393.891 505.004L390.552 506.234C389.498 502.368 386.687 500.084 382.47 500.084C377.726 500.084 373.157 503.598 373.157 510.451C373.157 517.304 377.726 520.818 382.47 520.818C386.862 520.818 389.674 518.182 390.728 514.492L393.891 515.722C392.485 520.642 388.444 524.157 382.294 524.157C375.617 523.981 369.292 519.061 369.292 510.275Z" fill="#160647"/>
<path d="M401.797 513.262L406.541 512.56C407.596 512.384 407.947 511.857 407.947 511.154C407.947 509.397 406.717 507.991 404.081 507.991C401.622 507.991 400.216 509.572 400.04 511.505L396.702 510.803C397.053 507.464 400.216 505.004 403.906 505.004C409.177 505.004 411.285 507.991 411.285 511.505V520.467C411.285 522.048 411.461 522.927 411.461 523.454H408.123C408.123 522.927 407.947 522.4 407.947 520.994C407.244 522.224 405.487 523.981 402.149 523.981C398.459 523.981 396.175 521.521 396.175 518.71C396.526 515.547 398.81 513.79 401.797 513.262ZM408.123 515.898V515.02L402.676 515.898C401.27 516.074 400.04 516.952 400.04 518.534C400.04 519.94 401.095 521.17 402.852 521.17C405.663 520.994 408.123 519.764 408.123 515.898Z" fill="#160647"/>
<path d="M424.99 523.453H421.476L414.272 505.706H418.138L423.233 519.412L428.329 505.706H432.019L424.99 523.453Z" fill="#160647"/>
<path d="M437.114 496.394C438.52 496.394 439.574 497.448 439.574 498.854C439.574 500.259 438.52 501.314 437.114 501.314C435.709 501.314 434.654 500.259 434.654 498.854C434.654 497.624 435.709 496.394 437.114 496.394ZM435.357 523.454V505.706H438.871V523.454H435.357Z" fill="#160647"/>
<path d="M449.062 513.262L453.806 512.56C454.86 512.384 455.212 511.857 455.212 511.154C455.212 509.397 453.982 507.991 451.346 507.991C448.886 507.991 447.481 509.572 447.305 511.505L443.967 510.803C444.318 507.464 447.481 505.004 451.171 505.004C456.442 505.004 458.55 507.991 458.55 511.505V520.467C458.55 522.048 458.726 522.927 458.726 523.454H455.563C455.563 522.927 455.387 522.4 455.387 520.994C454.685 522.224 452.928 523.981 449.589 523.981C445.899 523.981 443.615 521.521 443.615 518.71C443.615 515.547 445.899 513.79 449.062 513.262ZM455.212 515.898V515.02L449.765 515.898C448.359 516.074 447.129 516.952 447.129 518.534C447.129 519.94 448.184 521.17 449.941 521.17C452.928 520.994 455.212 519.764 455.212 515.898Z" fill="#160647"/>
<path d="M473.837 509.22C473.309 509.22 472.782 509.045 472.255 509.045C469.268 509.045 467.336 510.626 467.336 514.492V523.453H463.821V505.706H467.16V508.869C468.39 506.057 470.674 505.53 472.431 505.53C472.958 505.53 473.309 505.53 473.661 505.706V509.22H473.837Z" fill="#160647"/>
<path d="M476.648 518.533C478.229 518.533 479.635 519.763 479.635 522.047C479.635 526.967 476.472 528.9 474.188 529.252V527.319C475.945 526.967 477.175 525.035 477.175 523.277C476.999 523.277 476.824 523.453 476.296 523.453C474.891 523.453 473.837 522.575 473.837 520.993C473.837 519.763 475.067 518.533 476.648 518.533Z" fill="#160647"/>
<path d="M498.611 513.262L503.355 512.56C504.409 512.384 504.761 511.857 504.761 511.154C504.761 509.397 503.531 507.991 500.895 507.991C498.435 507.991 497.03 509.572 496.854 511.505L493.516 510.803C493.867 507.464 497.03 505.004 500.72 505.004C505.991 505.004 508.099 507.991 508.099 511.505V520.467C508.099 522.048 508.275 522.927 508.275 523.454H504.937C504.937 522.927 504.761 522.4 504.761 520.994C504.058 522.224 502.301 523.981 498.963 523.981C495.273 523.981 492.988 521.521 492.988 518.71C493.164 515.547 495.624 513.79 498.611 513.262ZM504.761 515.898V515.02L499.314 515.898C497.908 516.074 496.678 516.952 496.678 518.534C496.678 519.94 497.733 521.17 499.49 521.17C502.477 520.994 504.761 519.764 504.761 515.898Z" fill="#160647"/>
<path d="M535.334 520.642C534.455 522.399 532.522 523.805 529.887 523.805C524.615 523.805 521.453 519.588 521.453 514.316C521.453 509.221 524.791 505.004 529.887 505.004C533.049 505.004 534.806 506.585 535.334 507.991V496.569H538.848V520.115C538.848 521.872 539.023 523.102 539.023 523.454H535.685C535.685 523.102 535.509 522.048 535.509 520.994V520.642H535.334ZM530.062 520.818C533.225 520.818 535.158 518.006 535.158 514.316C535.158 510.626 533.225 508.166 530.062 508.166C526.9 508.166 524.791 510.802 524.791 514.316C524.967 518.182 526.9 520.818 530.062 520.818Z" fill="#160647"/>
<path d="M559.932 518.358C558.878 521.521 556.067 523.981 552.026 523.981C547.281 523.981 543.065 520.467 543.065 514.493C543.065 508.87 547.106 505.18 551.498 505.18C556.945 505.18 560.108 508.87 560.108 514.493C560.108 515.02 560.108 515.371 560.108 515.547H546.754C546.754 518.71 549.039 520.994 552.026 520.994C554.837 520.994 556.418 519.413 556.945 517.48L559.932 518.358ZM556.594 512.735C556.594 510.275 554.837 508.167 551.674 508.167C548.687 508.167 546.93 510.451 546.754 512.735H556.594Z" fill="#160647"/>
<path d="M566.082 517.655C566.258 519.413 567.663 520.994 570.299 520.994C572.232 520.994 573.286 519.94 573.286 518.71C573.286 517.655 572.407 516.777 571.002 516.425L568.015 515.723C565.203 515.195 563.622 513.263 563.622 510.803C563.622 507.815 566.433 505.18 569.948 505.18C574.867 505.18 576.273 508.343 576.624 509.924L573.637 511.154C573.462 510.275 572.759 508.167 569.948 508.167C568.19 508.167 566.961 509.397 566.961 510.451C566.961 511.505 567.663 512.208 569.069 512.56L571.88 513.263C575.043 513.965 576.8 515.898 576.8 518.534C576.8 520.994 574.692 523.981 570.299 523.981C565.379 523.981 563.446 520.818 563.095 518.885L566.082 517.655Z" fill="#160647"/>
<path d="M582.95 496.394C584.355 496.394 585.41 497.448 585.41 498.854C585.41 500.259 584.355 501.314 582.95 501.314C581.544 501.314 580.49 500.259 580.49 498.854C580.49 497.624 581.544 496.394 582.95 496.394ZM581.193 523.454V505.706H584.707V523.454H581.193Z" fill="#160647"/>
<path d="M592.614 523.629C592.789 526.089 594.722 528.022 597.533 528.022C601.223 528.022 602.98 526.089 602.98 522.223V519.763C602.102 521.345 600.169 522.75 597.533 522.75C592.789 522.75 589.451 519.236 589.451 514.14C589.451 509.396 592.789 505.53 597.533 505.53C600.345 505.53 602.102 506.585 602.98 508.342V505.882H606.494V522.223C606.494 526.792 604.21 531.185 597.533 531.185C593.141 531.185 589.802 528.373 589.275 524.507L592.614 523.629ZM602.98 513.965C602.98 510.45 600.872 508.342 597.885 508.342C594.898 508.342 592.789 510.626 592.789 513.965C592.789 517.479 594.722 519.587 597.885 519.587C601.047 519.587 602.98 517.479 602.98 513.965Z" fill="#160647"/>
<path d="M615.28 523.454H611.765V505.707H615.104V508.167C616.334 505.883 618.442 505.18 620.551 505.18C624.768 505.18 626.876 508.167 626.876 512.208V523.454H623.362V512.735C623.362 510.275 622.308 508.343 619.145 508.343C616.334 508.343 614.928 510.451 614.928 513.263V523.454H615.28Z" fill="#160647"/>
<path d="M646.204 513.262L650.948 512.56C652.002 512.384 652.353 511.857 652.353 511.154C652.353 509.397 651.123 507.991 648.488 507.991C646.028 507.991 644.622 509.572 644.447 511.505L641.108 510.803C641.46 507.464 644.622 505.004 648.312 505.004C653.583 505.004 655.692 507.991 655.692 511.505V520.467C655.692 522.048 655.868 522.927 655.868 523.454H652.529C652.529 522.927 652.353 522.4 652.353 520.994C651.651 522.224 649.894 523.981 646.555 523.981C642.865 523.981 640.581 521.521 640.581 518.71C640.757 515.547 643.041 513.79 646.204 513.262ZM652.353 515.898V515.02L646.907 515.898C645.501 516.074 644.271 516.952 644.271 518.534C644.271 519.94 645.325 521.17 647.082 521.17C650.069 520.994 652.353 519.764 652.353 515.898Z" fill="#160647"/>
<path d="M663.247 523.629C663.423 526.089 665.356 528.022 668.167 528.022C671.857 528.022 673.614 526.089 673.614 522.223V519.763C672.735 521.345 670.802 522.75 668.167 522.75C663.423 522.75 660.084 519.236 660.084 514.14C660.084 509.396 663.423 505.53 668.167 505.53C670.978 505.53 672.735 506.585 673.614 508.342V505.882H677.128V522.223C677.128 526.792 674.844 531.185 668.167 531.185C663.774 531.185 660.436 528.373 659.909 524.507L663.247 523.629ZM673.614 513.965C673.614 510.45 671.505 508.342 668.518 508.342C665.531 508.342 663.423 510.626 663.423 513.965C663.423 517.479 665.356 519.587 668.518 519.587C671.505 519.587 673.614 517.479 673.614 513.965Z" fill="#160647"/>
<path d="M697.861 518.358C696.807 521.521 693.996 523.981 689.954 523.981C685.21 523.981 680.993 520.467 680.993 514.493C680.993 508.87 685.035 505.18 689.427 505.18C694.874 505.18 698.037 508.87 698.037 514.493C698.037 515.02 698.037 515.371 698.037 515.547H684.683C684.683 518.71 686.967 520.994 689.954 520.994C692.766 520.994 694.347 519.413 694.874 517.48L697.861 518.358ZM694.523 512.735C694.523 510.275 692.766 508.167 689.603 508.167C686.616 508.167 684.859 510.451 684.683 512.735H694.523Z" fill="#160647"/>
<path d="M705.944 523.454H702.429V505.707H705.768V508.167C706.998 505.883 709.106 505.18 711.215 505.18C715.432 505.18 717.54 508.167 717.54 512.208V523.454H714.026V512.735C714.026 510.275 712.972 508.343 709.809 508.343C706.998 508.343 705.592 510.451 705.592 513.263V523.454H705.944Z" fill="#160647"/>
<path d="M725.271 514.492C725.271 518.534 727.731 520.642 730.718 520.642C734.057 520.642 735.286 518.358 735.638 516.952L738.625 518.358C737.746 520.818 735.286 523.805 730.542 523.805C725.447 523.805 721.581 519.764 721.581 514.317C721.581 508.87 725.447 504.828 730.542 504.828C735.286 504.828 737.746 507.815 738.449 510.451L735.286 511.857C734.759 510.1 733.529 508.167 730.542 508.167C727.907 508.342 725.271 510.451 725.271 514.492Z" fill="#160647"/>
<path d="M743.193 530.833L747.586 521.52L740.03 505.706H744.072L749.519 518.006L754.79 505.706H758.48L746.883 530.833H743.193Z" fill="#160647"/>
<path d="M231.714 545.945C238.216 545.945 244.892 550.865 244.892 559.475C244.892 568.261 238.391 573.181 231.714 573.181C225.213 573.181 218.536 568.261 218.536 559.475C218.712 550.69 225.213 545.945 231.714 545.945ZM231.714 569.842C236.634 569.842 241.203 566.328 241.203 559.475C241.203 552.622 236.634 549.108 231.714 549.108C226.795 549.108 222.226 552.622 222.226 559.475C222.402 566.328 226.97 569.842 231.714 569.842Z" fill="#160647"/>
<path d="M265.801 552.095V554.907H270.018V558.07H265.801V572.654H262.287V558.07H254.205V572.654H250.691V558.07H247.352V554.907H250.691V551.92C250.691 548.054 253.326 545.77 256.489 545.77C257.719 545.77 258.422 545.945 258.597 546.121V549.284C258.422 549.284 257.895 549.108 257.016 549.108C255.786 549.108 254.205 549.635 254.205 552.095V554.907H262.287V551.92C262.287 548.054 264.923 545.77 268.085 545.77C269.315 545.77 270.018 545.945 270.194 546.121V549.284C270.018 549.284 269.491 549.108 268.613 549.108C267.383 549.108 265.801 549.635 265.801 552.095Z" fill="#160647"/>
<path d="M289.346 567.557C288.292 570.72 285.48 573.18 281.439 573.18C276.695 573.18 272.478 569.666 272.478 563.692C272.478 558.069 276.519 554.379 280.912 554.379C286.359 554.379 289.522 558.069 289.522 563.692C289.522 564.219 289.522 564.57 289.522 564.746H276.168C276.168 567.909 278.452 570.193 281.439 570.193C284.25 570.193 285.832 568.612 286.359 566.679L289.346 567.557ZM285.832 561.935C285.832 559.475 284.075 557.366 280.912 557.366C277.925 557.366 276.168 559.65 275.992 561.935H285.832Z" fill="#160647"/>
<path d="M303.754 558.42C303.227 558.42 302.699 558.245 302.172 558.245C299.185 558.245 297.253 559.826 297.253 563.692V572.653H293.738V554.906H297.077V558.069C298.307 555.258 300.591 554.73 302.348 554.73C302.875 554.73 303.227 554.73 303.578 554.906V558.42H303.754Z" fill="#160647"/>
<path d="M309.728 554.73C311.133 554.73 312.363 555.96 312.363 557.366C312.363 558.772 311.133 559.826 309.728 559.826C308.322 559.826 307.268 558.772 307.268 557.366C307.268 555.785 308.322 554.73 309.728 554.73ZM309.728 567.733C311.133 567.733 312.363 568.963 312.363 570.369C312.363 571.775 311.133 572.829 309.728 572.829C308.322 572.829 307.268 571.775 307.268 570.369C307.268 568.788 308.322 567.733 309.728 567.733Z" fill="#160647"/>
<path d="M330.988 572.654V555.785H325.19V553.325C328.528 553.325 330.812 551.393 331.339 548.757H334.502V572.654H330.988Z" fill="#160647"/>
<path d="M341.53 551.919C343.112 549.635 345.396 548.054 348.91 548.054C352.424 548.054 354.708 549.635 356.29 551.919C357.871 554.204 358.398 557.367 358.398 560.529C358.398 563.868 357.871 566.855 356.29 569.139C354.708 571.424 352.424 573.005 348.91 573.005C345.396 573.005 343.112 571.424 341.53 569.139C339.949 566.855 339.422 563.692 339.422 560.529C339.422 557.367 339.949 554.379 341.53 551.919ZM345.044 568.437C345.923 569.315 347.153 570.018 348.91 570.018C350.667 570.018 351.721 569.491 352.776 568.437C354.181 566.855 354.884 564.395 354.884 560.705C354.884 557.015 354.181 554.555 352.776 552.974C351.897 552.095 350.667 551.392 348.91 551.392C347.153 551.392 346.099 551.919 345.044 552.974C343.639 554.555 342.936 557.015 342.936 560.705C342.936 564.395 343.639 566.855 345.044 568.437Z" fill="#160647"/>
<path d="M367.359 548.405C370.522 548.405 373.333 550.865 373.333 554.204C373.333 557.542 370.522 560.002 367.359 560.002C364.196 560.002 361.385 557.542 361.385 554.204C361.561 551.041 364.196 548.405 367.359 548.405ZM364.548 572.654L381.767 548.757H385.105L368.062 572.654H364.548ZM367.359 557.191C368.94 557.191 370.17 555.961 370.17 554.204C370.17 552.622 368.94 551.392 367.359 551.392C365.778 551.392 364.548 552.622 364.548 554.204C364.548 555.961 365.778 557.191 367.359 557.191ZM381.943 561.232C385.105 561.232 387.917 563.692 387.917 567.031C387.917 570.37 385.105 572.83 381.943 572.83C378.78 572.83 375.969 570.37 375.969 567.031C376.144 563.868 378.78 561.232 381.943 561.232ZM381.943 570.018C383.524 570.018 384.754 568.788 384.754 567.031C384.754 565.45 383.524 564.22 381.943 564.22C380.361 564.22 379.131 565.45 379.131 567.031C379.131 568.788 380.361 570.018 381.943 570.018Z" fill="#160647"/>
<path d="M418.489 563.692C418.489 569.139 414.8 573.18 409.353 573.18C403.906 573.18 400.216 569.139 400.216 563.692C400.216 558.245 403.906 554.203 409.353 554.203C414.8 554.203 418.489 558.42 418.489 563.692ZM414.975 563.692C414.975 559.65 412.34 557.366 409.528 557.366C406.717 557.366 404.082 559.65 404.082 563.692C404.082 567.909 406.717 570.017 409.528 570.017C412.34 570.017 414.975 567.909 414.975 563.692Z" fill="#160647"/>
<path d="M439.223 552.095V554.907H443.44V558.07H439.223V572.654H435.708V558.07H427.626V572.654H424.112V558.07H420.774V554.907H424.112V551.92C424.112 548.054 426.748 545.77 429.91 545.77C431.14 545.77 431.843 545.945 432.019 546.121V549.284C431.843 549.284 431.316 549.108 430.437 549.108C429.207 549.108 427.626 549.635 427.626 552.095V554.907H435.708V551.92C435.708 548.054 438.344 545.77 441.507 545.77C442.737 545.77 443.44 545.945 443.615 546.121V549.284C443.44 549.284 442.912 549.108 442.034 549.108C440.804 549.108 439.223 549.635 439.223 552.095Z" fill="#160647"/>
<path d="M473.134 563.692C473.134 569.139 469.444 573.18 463.997 573.18C458.55 573.18 454.86 569.139 454.86 563.692C454.86 558.245 458.55 554.203 463.997 554.203C469.444 554.203 473.134 558.42 473.134 563.692ZM469.62 563.692C469.62 559.65 466.984 557.366 464.173 557.366C461.361 557.366 458.726 559.65 458.726 563.692C458.726 567.909 461.361 570.017 464.173 570.017C466.984 570.017 469.62 567.909 469.62 563.692Z" fill="#160647"/>
<path d="M483.852 573.18C479.635 573.18 477.175 570.018 477.175 565.976V554.73H480.689V565.449C480.689 567.909 481.743 570.018 484.73 570.018C487.542 570.018 488.947 568.26 488.947 565.449V554.73H492.461V569.139C492.461 570.545 492.637 571.775 492.637 572.478H489.299C489.299 572.126 489.123 571.072 489.123 570.369C488.069 572.302 485.96 573.18 483.852 573.18Z" fill="#160647"/>
<path d="M508.099 558.42C507.572 558.42 507.045 558.245 506.518 558.245C503.531 558.245 501.598 559.826 501.598 563.692V572.653H498.084V554.906H501.422V558.069C502.652 555.258 504.936 554.73 506.694 554.73C507.221 554.73 507.572 554.73 507.923 554.906V558.42H508.099Z" fill="#160647"/>
<path d="M522.507 566.855C522.683 568.612 524.088 570.193 526.724 570.193C528.657 570.193 529.711 569.139 529.711 567.909C529.711 566.855 528.832 565.976 527.427 565.625L524.44 564.922C521.629 564.395 520.047 562.462 520.047 560.002C520.047 557.015 522.858 554.379 526.373 554.379C531.292 554.379 532.698 557.542 533.049 559.123L530.062 560.353C529.887 559.475 529.184 557.366 526.373 557.366C524.615 557.366 523.386 558.596 523.386 559.65C523.386 560.705 524.088 561.407 525.494 561.759L528.305 562.462C531.468 563.165 533.225 565.097 533.225 567.733C533.225 570.193 531.117 573.18 526.724 573.18C521.804 573.18 519.871 570.017 519.52 568.085L522.507 566.855Z" fill="#160647"/>
<path d="M552.904 567.557C551.85 570.72 549.039 573.18 544.997 573.18C540.253 573.18 536.036 569.666 536.036 563.692C536.036 558.069 540.078 554.379 544.47 554.379C549.917 554.379 553.08 558.069 553.08 563.692C553.08 564.219 553.08 564.57 553.08 564.746H539.726C539.726 567.909 542.01 570.193 544.997 570.193C547.809 570.193 549.39 568.612 549.917 566.679L552.904 567.557ZM549.39 561.935C549.39 559.475 547.633 557.366 544.47 557.366C541.483 557.366 539.726 559.65 539.55 561.935H549.39Z" fill="#160647"/>
<path d="M567.312 558.42C566.785 558.42 566.258 558.245 565.731 558.245C562.744 558.245 560.811 559.826 560.811 563.692V572.653H557.297V554.906H560.635V558.069C561.865 555.258 564.149 554.73 565.906 554.73C566.433 554.73 566.785 554.73 567.136 554.906V558.42H567.312Z" fill="#160647"/>
<path d="M579.787 572.653H576.273L569.069 554.906H572.934L578.03 568.612L583.125 554.906H586.815L579.787 572.653Z" fill="#160647"/>
<path d="M591.911 545.594C593.316 545.594 594.371 546.648 594.371 548.054C594.371 549.459 593.316 550.514 591.911 550.514C590.505 550.514 589.451 549.459 589.451 548.054C589.275 546.824 590.505 545.594 591.911 545.594ZM590.154 572.654V554.907H593.668V572.654H590.154Z" fill="#160647"/>
<path d="M601.575 563.692C601.575 567.733 604.034 569.842 607.021 569.842C610.36 569.842 611.59 567.557 611.941 566.152L614.928 567.557C614.05 570.017 611.59 573.005 606.846 573.005C601.75 573.005 597.885 568.963 597.885 563.516C597.885 558.069 601.75 554.027 606.846 554.027C611.59 554.027 614.05 557.015 614.752 559.65L611.59 561.056C611.063 559.299 609.833 557.366 606.846 557.366C604.034 557.542 601.575 559.65 601.575 563.692Z" fill="#160647"/>
<path d="M634.256 567.557C633.202 570.72 630.39 573.18 626.349 573.18C621.605 573.18 617.388 569.666 617.388 563.692C617.388 558.069 621.429 554.379 625.822 554.379C631.269 554.379 634.431 558.069 634.431 563.692C634.431 564.219 634.431 564.57 634.431 564.746H621.078C621.078 567.909 623.362 570.193 626.349 570.193C629.16 570.193 630.742 568.612 631.269 566.679L634.256 567.557ZM630.742 561.935C630.742 559.475 628.985 557.366 625.822 557.366C622.835 557.366 621.078 559.65 620.902 561.935H630.742Z" fill="#160647"/>
<path d="M640.23 566.855C640.405 568.612 641.811 570.193 644.447 570.193C646.379 570.193 647.434 569.139 647.434 567.909C647.434 566.855 646.555 565.976 645.149 565.625L642.163 564.922C639.351 564.395 637.77 562.462 637.77 560.002C637.77 557.015 640.581 554.379 644.095 554.379C649.015 554.379 650.421 557.542 650.772 559.123L647.785 560.353C647.609 559.475 646.907 557.366 644.095 557.366C642.338 557.366 641.108 558.596 641.108 559.65C641.108 560.705 641.811 561.407 643.217 561.759L646.028 562.462C649.191 563.165 650.948 565.097 650.948 567.733C650.948 570.193 648.839 573.18 644.447 573.18C639.527 573.18 637.594 570.017 637.243 568.085L640.23 566.855Z" fill="#160647"/>
<path d="M233.647 602.7C233.296 600.767 231.714 598.307 228.2 598.307C225.213 598.307 223.105 600.24 223.105 602.7C223.105 604.633 224.335 606.039 226.443 606.566L230.309 607.445C234.701 608.323 237.161 611.135 237.161 614.825C237.161 618.866 233.647 622.556 228.2 622.556C221.875 622.556 218.888 618.515 218.361 614.825L221.875 613.77C222.051 616.757 224.159 619.393 228.2 619.393C231.89 619.393 233.647 617.46 233.647 615.176C233.647 613.243 232.417 611.662 229.782 611.135L226.092 610.256C222.402 609.377 219.766 607.093 219.766 603.052C219.766 599.01 223.632 595.32 228.376 595.32C234.35 595.32 236.634 599.01 237.161 601.822L233.647 602.7Z" fill="#160647"/>
<path d="M246.122 604.106H249.988V607.269H246.122V616.406C246.122 617.988 246.825 618.866 248.582 618.866C249.109 618.866 249.636 618.866 249.988 618.691V621.678C249.636 621.853 248.758 622.029 247.704 622.029C244.717 622.029 242.784 620.272 242.784 616.933V607.269H239.445V604.106H240.324C242.257 604.106 243.135 602.876 243.135 601.295V598.483H246.298V604.106H246.122Z" fill="#160647"/>
<path d="M258.773 611.662L263.517 610.959C264.571 610.783 264.923 610.256 264.923 609.553C264.923 607.796 263.693 606.39 261.057 606.39C258.597 606.39 257.192 607.972 257.016 609.905L253.678 609.202C254.029 605.863 257.192 603.403 260.881 603.403C266.153 603.403 268.261 606.39 268.261 609.905V618.866C268.261 620.448 268.437 621.326 268.437 621.853H265.098C265.098 621.326 264.923 620.799 264.923 619.393C264.22 620.623 262.463 622.38 259.124 622.38C255.435 622.38 253.15 619.92 253.15 617.109C253.502 613.946 255.786 612.189 258.773 611.662ZM264.923 614.298V613.419L259.476 614.298C258.07 614.473 256.84 615.352 256.84 616.933C256.84 618.339 257.894 619.569 259.652 619.569C262.639 619.393 264.923 618.163 264.923 614.298Z" fill="#160647"/>
<path d="M283.723 607.621C283.196 607.621 282.669 607.445 282.142 607.445C279.155 607.445 277.222 609.026 277.222 612.892V621.853H273.708V604.106H277.046V607.269C278.276 604.458 280.561 603.931 282.318 603.931C282.845 603.931 283.196 603.931 283.548 604.106V607.621H283.723Z" fill="#160647"/>
<path d="M293.036 604.106H296.901V607.269H293.036V616.406C293.036 617.988 293.738 618.866 295.496 618.866C296.023 618.866 296.55 618.866 296.901 618.691V621.678C296.55 621.853 295.671 622.029 294.617 622.029C291.63 622.029 289.697 620.272 289.697 616.933V607.269H286.359V604.106H287.237C289.17 604.106 290.049 602.876 290.049 601.295V598.483H293.211V604.106H293.036Z" fill="#160647"/>
<path d="M324.135 604.106L328.704 617.461L332.569 604.106H336.259L330.461 621.854H326.947L322.203 608.324L317.634 621.854H313.945L308.146 604.106H312.012L316.053 617.461L320.621 604.106H324.135Z" fill="#160647"/>
<path d="M341.53 594.794C342.936 594.794 343.99 595.848 343.99 597.254C343.99 598.66 342.936 599.714 341.53 599.714C340.125 599.714 339.07 598.66 339.07 597.254C339.07 596.024 340.3 594.794 341.53 594.794ZM339.949 621.854V604.107H343.463V621.854H339.949Z" fill="#160647"/>
<path d="M353.83 604.106H357.695V607.269H353.83V616.406C353.83 617.988 354.533 618.866 356.29 618.866C356.817 618.866 357.344 618.866 357.695 618.691V621.678C357.344 621.853 356.465 622.029 355.411 622.029C352.424 622.029 350.491 620.272 350.491 616.933V607.269H347.153V604.106H348.031C349.964 604.106 350.843 602.876 350.843 601.295V598.483H354.005V604.106H353.83Z" fill="#160647"/>
<path d="M365.778 621.853H362.264V595.145H365.778V606.215C367.008 604.282 369.116 603.579 371.225 603.579C375.442 603.579 377.55 606.566 377.55 610.607V621.853H374.036V611.134C374.036 608.674 372.982 606.742 369.819 606.742C367.183 606.742 365.778 608.85 365.602 611.486V621.853H365.778Z" fill="#160647"/>
<path d="M396.526 611.662L401.27 610.959C402.324 610.783 402.676 610.256 402.676 609.553C402.676 607.796 401.446 606.39 398.81 606.39C396.35 606.39 394.945 607.972 394.769 609.905L391.431 609.202C391.782 605.863 394.945 603.403 398.635 603.403C403.906 603.403 406.014 606.39 406.014 609.905V618.866C406.014 620.448 406.19 621.326 406.19 621.853H402.852C402.852 621.326 402.676 620.799 402.676 619.393C401.973 620.623 400.216 622.38 396.878 622.38C393.188 622.38 390.904 619.92 390.904 617.109C391.255 613.946 393.539 612.189 396.526 611.662ZM402.676 614.298V613.419L397.229 614.298C395.823 614.473 394.593 615.352 394.593 616.933C394.593 618.339 395.648 619.569 397.405 619.569C400.392 619.393 402.676 618.163 402.676 614.298Z" fill="#160647"/>
<path d="M425.518 604.106H429.383V607.269H425.518V616.406C425.518 617.988 426.22 618.866 427.977 618.866C428.505 618.866 429.032 618.866 429.383 618.691V621.678C429.032 621.853 428.153 622.029 427.099 622.029C424.112 622.029 422.179 620.272 422.179 616.933V607.269H418.665V604.106H419.544C421.476 604.106 422.355 602.876 422.355 601.295V598.483H425.518V604.106Z" fill="#160647"/>
<path d="M435.533 594.794C436.938 594.794 437.993 595.848 437.993 597.254C437.993 598.66 436.938 599.714 435.533 599.714C434.127 599.714 433.073 598.66 433.073 597.254C433.073 596.024 434.303 594.794 435.533 594.794ZM433.951 621.854V604.107H437.466V621.854H433.951Z" fill="#160647"/>
<path d="M458.726 616.758C457.672 619.921 454.86 622.381 450.819 622.381C446.075 622.381 441.858 618.866 441.858 612.892C441.858 607.269 445.899 603.579 450.292 603.579C455.739 603.579 458.902 607.269 458.902 612.892C458.902 613.419 458.902 613.771 458.902 613.946H445.548C445.548 617.109 447.832 619.393 450.819 619.393C453.63 619.393 455.212 617.812 455.739 615.879L458.726 616.758ZM455.212 611.135C455.212 608.675 453.455 606.566 450.292 606.566C447.305 606.566 445.548 608.851 445.372 611.135H455.212Z" fill="#160647"/>
<path d="M461.889 612.717V609.729H471.904V612.717H461.889Z" fill="#160647"/>
<path d="M478.229 594.794C479.635 594.794 480.689 595.848 480.689 597.254C480.689 598.66 479.635 599.714 478.229 599.714C476.824 599.714 475.769 598.66 475.769 597.254C475.769 596.024 476.824 594.794 478.229 594.794ZM476.472 621.854V604.107H479.986V621.854H476.472Z" fill="#160647"/>
<path d="M489.299 621.853H485.785V604.106H489.123V606.566C490.353 604.282 492.461 603.579 494.57 603.579C498.787 603.579 500.895 606.566 500.895 610.608V621.853H497.381V611.135C497.381 608.675 496.327 606.742 493.164 606.742C490.353 606.742 488.947 608.851 488.947 611.662V621.853H489.299Z" fill="#160647"/>
<path d="M520.574 604.106H524.44V607.269H520.574V616.406C520.574 617.988 521.277 618.866 523.034 618.866C523.561 618.866 524.088 618.866 524.44 618.691V621.678C524.088 621.853 523.21 622.029 522.156 622.029C519.169 622.029 517.236 620.272 517.236 616.933V607.269H513.897V604.106H514.776C516.709 604.106 517.587 602.876 517.587 601.295V598.483H520.75V604.106H520.574Z" fill="#160647"/>
<path d="M545.524 612.892C545.524 618.339 541.835 622.38 536.388 622.38C530.941 622.38 527.251 618.339 527.251 612.892C527.251 607.445 530.941 603.403 536.388 603.403C541.835 603.403 545.524 607.62 545.524 612.892ZM541.835 612.892C541.835 608.85 539.199 606.566 536.388 606.566C533.576 606.566 530.941 608.85 530.941 612.892C530.941 617.109 533.576 619.218 536.388 619.218C539.199 619.218 541.835 617.109 541.835 612.892Z" fill="#160647"/>
<path d="M584.18 621.853V601.47L575.219 621.853H571.88L563.095 601.47V621.853H559.581V595.672H564.501L573.637 616.933L582.95 595.672H587.869V621.853H584.18Z" fill="#160647"/>
<path d="M609.481 616.758C608.427 619.921 605.616 622.381 601.575 622.381C596.83 622.381 592.614 618.866 592.614 612.892C592.614 607.269 596.655 603.579 601.047 603.579C606.494 603.579 609.657 607.269 609.657 612.892C609.657 613.419 609.657 613.771 609.657 613.946H596.128C596.128 617.109 598.412 619.393 601.399 619.393C604.21 619.393 605.791 617.812 606.319 615.879L609.481 616.758ZM605.967 611.135C605.967 608.675 604.21 606.566 601.047 606.566C598.06 606.566 596.303 608.851 596.128 611.135H605.967Z" fill="#160647"/>
<path d="M614.05 621.853V604.106H617.388V606.391C618.442 604.458 620.726 603.579 622.835 603.579C625.119 603.579 627.228 604.633 628.106 606.918C629.512 604.458 631.796 603.579 634.08 603.579C637.243 603.579 640.23 605.688 640.23 610.256V621.853H636.716V610.783C636.716 608.499 635.486 606.742 633.026 606.742C630.566 606.742 628.985 608.675 628.985 611.135V621.853H625.47V610.783C625.47 608.499 624.416 606.742 621.781 606.742C619.321 606.742 617.564 608.499 617.564 611.311V622.029H614.05V621.853Z" fill="#160647"/>
<path d="M662.369 612.892C662.369 618.339 658.679 622.38 653.232 622.38C647.785 622.38 644.095 618.339 644.095 612.892C644.095 607.445 647.785 603.403 653.232 603.403C658.679 603.403 662.369 607.62 662.369 612.892ZM658.679 612.892C658.679 608.85 656.043 606.566 653.232 606.566C650.421 606.566 647.785 608.85 647.785 612.892C647.785 617.109 650.421 619.218 653.232 619.218C656.043 619.218 658.679 617.109 658.679 612.892Z" fill="#160647"/>
<path d="M676.601 607.621C676.074 607.621 675.547 607.445 675.019 607.445C672.032 607.445 670.1 609.026 670.1 612.892V621.853H666.586V604.106H669.924V607.269C671.154 604.458 673.438 603.931 675.195 603.931C675.722 603.931 676.074 603.931 676.425 604.106V607.621H676.601Z" fill="#160647"/>
<path d="M682.048 594.794C683.453 594.794 684.508 595.848 684.508 597.254C684.508 598.66 683.453 599.714 682.048 599.714C680.642 599.714 679.588 598.66 679.588 597.254C679.412 596.024 680.642 594.794 682.048 594.794ZM680.291 621.854V604.107H683.805V621.854H680.291Z" fill="#160647"/>
<path d="M693.82 611.662L698.564 610.959C699.618 610.783 699.97 610.256 699.97 609.553C699.97 607.796 698.74 606.39 696.104 606.39C693.644 606.39 692.239 607.972 692.063 609.905L688.724 609.202C689.076 605.863 692.239 603.403 695.928 603.403C701.2 603.403 703.308 606.39 703.308 609.905V618.866C703.308 620.448 703.484 621.326 703.484 621.853H700.145C700.145 621.326 699.97 620.799 699.97 619.393C699.267 620.623 697.51 622.38 694.171 622.38C690.481 622.38 688.197 619.92 688.197 617.109C688.549 613.946 690.833 612.189 693.82 611.662ZM699.97 614.298V613.419L694.523 614.298C693.117 614.473 691.887 615.352 691.887 616.933C691.887 618.339 692.941 619.569 694.698 619.569C697.685 619.393 699.97 618.163 699.97 614.298Z" fill="#160647"/>
<path d="M708.931 621.853V595.145H712.445V621.853H708.931Z" fill="#160647"/>
<path d="M727.907 621.853V595.672H737.044C743.72 595.672 749.519 600.24 749.519 608.85C749.519 617.46 743.72 621.853 737.044 621.853H727.907ZM736.868 618.69C741.788 618.69 745.829 615.528 745.829 608.85C745.829 602.173 741.788 599.01 737.044 599.01H731.421V618.69H736.868Z" fill="#160647"/>
<path d="M758.304 611.662L763.048 610.959C764.102 610.783 764.454 610.256 764.454 609.553C764.454 607.796 763.224 606.39 760.588 606.39C758.128 606.39 756.722 607.972 756.547 609.905L753.208 609.202C753.56 605.863 756.722 603.403 760.412 603.403C765.683 603.403 767.792 606.39 767.792 609.905V618.866C767.792 620.448 767.968 621.326 767.968 621.853H764.805C764.805 621.326 764.629 620.799 764.629 619.393C763.926 620.623 762.169 622.38 758.831 622.38C755.141 622.38 752.857 619.92 752.857 617.109C753.033 613.946 755.317 612.189 758.304 611.662ZM764.454 614.298V613.419L759.007 614.298C757.601 614.473 756.371 615.352 756.371 616.933C756.371 618.339 757.425 619.569 759.182 619.569C762.169 619.393 764.454 618.163 764.454 614.298Z" fill="#160647"/>
<path d="M773.59 629.234L777.983 619.921L770.428 604.106H774.469L779.916 616.406L785.187 604.106H788.877L777.28 629.234H773.59Z" fill="#160647"/>
<path d="M181.99 746.787C181.99 738.528 188.315 733.081 195.343 733.081C202.547 733.081 206.237 737.474 207.291 741.691L202.547 743.272C201.844 740.812 199.912 738.001 195.343 738.001C191.478 738.001 187.261 740.812 187.261 746.787C187.261 752.41 191.126 755.397 195.343 755.397C199.736 755.397 202.02 752.41 202.723 750.125L207.467 751.531C206.413 755.572 202.723 760.492 195.343 760.492C187.964 760.492 181.99 755.221 181.99 746.787Z" fill="#160647"/>
<path d="M214.847 759.79H209.927V733.081H214.847V743.097C216.077 741.691 218.009 741.164 219.766 741.164C224.335 741.164 226.443 744.327 226.443 748.368V759.79H221.524V749.247C221.524 747.138 220.469 745.557 218.185 745.557C216.077 745.557 214.847 747.138 214.847 749.071V759.79Z" fill="#160647"/>
<path d="M248.231 750.828C248.231 756.451 244.19 760.493 238.743 760.493C233.296 760.493 229.255 756.451 229.255 750.828C229.255 745.205 233.296 741.164 238.743 741.164C244.19 741.164 248.231 745.205 248.231 750.828ZM243.311 750.828C243.311 747.314 241.027 745.733 238.743 745.733C236.458 745.733 234.174 747.49 234.174 750.828C234.174 754.167 236.458 755.924 238.743 755.924C241.027 755.924 243.311 754.167 243.311 750.828Z" fill="#160647"/>
<path d="M268.964 750.828C268.964 756.451 264.923 760.493 259.476 760.493C254.029 760.493 249.988 756.451 249.988 750.828C249.988 745.205 254.029 741.164 259.476 741.164C264.923 741.164 268.964 745.205 268.964 750.828ZM264.044 750.828C264.044 747.314 261.76 745.733 259.476 745.733C257.192 745.733 254.908 747.49 254.908 750.828C254.908 754.167 257.192 755.924 259.476 755.924C261.76 755.924 264.044 754.167 264.044 750.828Z" fill="#160647"/>
<path d="M274.587 753.816C274.762 755.221 275.816 756.627 277.925 756.627C279.506 756.627 280.385 755.748 280.385 754.87C280.385 753.991 279.858 753.464 278.452 753.113L275.992 752.585C272.478 751.883 270.897 749.774 270.897 747.138C270.897 743.976 273.708 741.164 277.749 741.164C282.845 741.164 284.602 744.503 284.953 746.435L280.912 747.314C280.736 746.26 280.033 744.854 277.925 744.854C276.695 744.854 275.641 745.557 275.641 746.611C275.641 747.49 276.344 748.017 277.222 748.193L279.858 748.72C283.372 749.423 285.305 751.707 285.305 754.343C285.305 757.33 283.02 760.317 278.276 760.317C272.829 760.317 270.897 756.803 270.721 754.694L274.587 753.816Z" fill="#160647"/>
<path d="M304.105 754.694C303.227 757.857 300.24 760.493 295.847 760.493C290.927 760.493 286.535 756.978 286.535 750.828C286.535 745.03 290.751 741.34 295.496 741.34C301.118 741.34 304.457 744.854 304.457 750.828C304.457 751.531 304.457 752.234 304.457 752.41H291.454C291.63 754.87 293.563 756.627 296.023 756.627C298.307 756.627 299.537 755.397 300.24 753.816L304.105 754.694ZM299.537 748.72C299.537 746.963 298.307 745.206 295.496 745.206C293.036 745.206 291.63 747.138 291.454 748.72H299.537Z" fill="#160647"/>
<path d="M319.919 749.423L324.311 748.72C325.365 748.544 325.717 748.017 325.717 747.49C325.717 746.26 324.663 745.206 322.73 745.206C320.621 745.206 319.391 746.611 319.216 748.193L314.823 747.314C315.174 744.503 317.81 741.34 322.554 741.34C328.352 741.34 330.461 744.503 330.461 748.193V757.154C330.461 758.033 330.637 759.438 330.637 759.966H326.068C325.893 759.438 325.893 758.56 325.893 757.857C325.014 759.263 323.257 760.493 320.621 760.493C316.756 760.493 314.472 757.857 314.472 755.046C314.472 751.707 316.932 749.95 319.919 749.423ZM325.717 752.586V751.707L321.676 752.41C320.446 752.586 319.391 753.288 319.391 754.694C319.391 755.748 320.094 756.803 321.676 756.803C323.784 756.803 325.717 755.748 325.717 752.586Z" fill="#160647"/>
<path d="M348.734 741.691H352.424V746.084H348.734V753.64C348.734 755.221 349.437 755.748 350.843 755.748C351.37 755.748 352.073 755.748 352.424 755.573V759.614C351.897 759.79 351.018 760.141 349.613 760.141C346.099 760.141 343.815 758.033 343.815 754.518V746.084H340.476V741.691H341.355C343.287 741.691 344.166 740.461 344.166 738.88V736.244H348.559V741.691H348.734Z" fill="#160647"/>
<path d="M373.157 750.828C373.157 756.451 369.116 760.493 363.669 760.493C358.222 760.493 354.181 756.451 354.181 750.828C354.181 745.205 358.222 741.164 363.669 741.164C369.116 741.164 373.157 745.205 373.157 750.828ZM368.238 750.828C368.238 747.314 365.953 745.733 363.669 745.733C361.385 745.733 359.101 747.49 359.101 750.828C359.101 754.167 361.385 755.924 363.669 755.924C365.953 755.924 368.238 754.167 368.238 750.828Z" fill="#160647"/>
<path d="M381.064 759.79H376.144V741.691H380.888V743.976C381.943 742.043 384.227 741.164 386.16 741.164C390.728 741.164 392.661 744.327 392.661 748.368V759.79H387.741V749.247C387.741 747.138 386.687 745.557 384.403 745.557C382.294 745.557 381.064 747.138 381.064 749.247V759.79Z" fill="#160647"/>
<path d="M413.043 754.694C412.164 757.857 409.177 760.493 404.784 760.493C399.865 760.493 395.472 756.978 395.472 750.828C395.472 745.03 399.689 741.34 404.433 741.34C410.055 741.34 413.394 744.854 413.394 750.828C413.394 751.531 413.394 752.234 413.394 752.41H400.392C400.567 754.87 402.5 756.627 404.96 756.627C407.244 756.627 408.474 755.397 409.177 753.816L413.043 754.694ZM408.474 748.72C408.474 746.963 407.244 745.206 404.433 745.206C401.973 745.206 400.567 747.138 400.392 748.72H408.474Z" fill="#160647"/>
<path d="M1257.31 881.033H187.788C183.922 881.033 180.76 877.87 180.76 874.004V789.486C180.76 785.62 183.922 782.457 187.788 782.457H1257.48C1261.35 782.457 1264.51 785.62 1264.51 789.486V874.004C1264.34 877.87 1261.17 881.033 1257.31 881.033Z" fill="white"/>
<path d="M1257.31 883.668H187.788C182.517 883.668 178.124 879.276 178.124 874.004V789.486C178.124 784.214 182.517 779.821 187.788 779.821H1257.48C1262.75 779.821 1267.15 784.214 1267.15 789.486V874.004C1266.97 879.451 1262.75 883.668 1257.31 883.668ZM187.788 785.093C185.328 785.093 183.395 787.026 183.395 789.486V874.004C183.395 876.464 185.328 878.397 187.788 878.397H1257.48C1259.94 878.397 1261.88 876.464 1261.88 874.004V789.486C1261.88 787.026 1259.94 785.093 1257.48 785.093H187.788Z" fill="#E5E7EA"/>
<path d="M273.005 847.823V821.642H288.819V824.98H276.519V833.414H287.589V836.753H276.519V847.823H273.005Z" fill="#ADAAC0"/>
<path d="M301.997 833.589C301.47 833.589 300.942 833.414 300.415 833.414C297.428 833.414 295.495 834.995 295.495 838.861V847.822H291.981V830.075H295.32V833.238C296.55 830.427 298.834 829.899 300.591 829.899C301.118 829.899 301.469 829.899 301.821 830.075V833.589H301.997Z" fill="#ADAAC0"/>
<path d="M307.268 820.763C308.673 820.763 309.728 821.817 309.728 823.223C309.728 824.628 308.673 825.683 307.268 825.683C305.862 825.683 304.808 824.628 304.808 823.223C304.808 821.993 306.038 820.763 307.268 820.763ZM305.686 847.823V830.076H309.2V847.823H305.686Z" fill="#ADAAC0"/>
<path d="M330.461 842.727C329.407 845.89 326.595 848.35 322.554 848.35C317.81 848.35 313.593 844.836 313.593 838.862C313.593 833.239 317.634 829.549 322.027 829.549C327.474 829.549 330.637 833.239 330.637 838.862C330.637 839.389 330.637 839.74 330.637 839.916H317.283C317.283 843.079 319.567 845.363 322.554 845.363C325.365 845.363 326.947 843.782 327.474 841.849L330.461 842.727ZM326.947 837.105C326.947 834.645 325.19 832.536 322.027 832.536C319.04 832.536 317.283 834.82 317.107 837.105H326.947Z" fill="#ADAAC0"/>
<path d="M338.368 847.823H334.854V830.076H338.192V832.536C339.422 830.252 341.53 829.549 343.639 829.549C347.856 829.549 349.964 832.536 349.964 836.577V847.823H346.45V837.105C346.45 834.645 345.396 832.712 342.233 832.712C339.422 832.712 338.016 834.82 338.016 837.632V847.823H338.368Z" fill="#ADAAC0"/>
<path d="M368.062 845.011C367.183 846.768 365.251 848.174 362.615 848.174C357.344 848.174 354.181 843.957 354.181 838.686C354.181 833.59 357.52 829.373 362.615 829.373C365.778 829.373 367.535 830.954 368.062 832.36V820.938H371.576V844.308C371.576 846.066 371.752 847.296 371.752 847.647H368.413C368.413 847.296 368.238 846.241 368.238 845.187V845.011H368.062ZM362.966 845.187C366.129 845.187 368.062 842.376 368.062 838.686C368.062 834.996 366.129 832.536 362.966 832.536C359.804 832.536 357.695 835.171 357.695 838.686C357.695 842.551 359.628 845.187 362.966 845.187Z" fill="#ADAAC0"/>
<path d="M377.374 847.823V821.114H380.888V847.823H377.374Z" fill="#ADAAC0"/>
<path d="M387.389 855.202L391.782 845.889L384.227 830.075H388.268L393.715 842.375L398.986 830.075H402.676L391.079 855.202H387.389Z" fill="#ADAAC0"/>
<path d="M231.714 852.566C242.291 852.566 250.866 843.99 250.866 833.413C250.866 822.835 242.291 814.26 231.714 814.26C221.136 814.26 212.562 822.835 212.562 833.413C212.562 843.99 221.136 852.566 231.714 852.566Z" fill="url(#paint0_linear_35_223)" stroke="#F3A63F" stroke-miterlimit="10"/>
<path opacity="0.3" d="M220.82 837.454C223.828 837.454 226.267 835.645 226.267 833.413C226.267 831.18 223.828 829.371 220.82 829.371C217.812 829.371 215.373 831.18 215.373 833.413C215.373 835.645 217.812 837.454 220.82 837.454Z" fill="#F25638"/>
<path opacity="0.3" d="M242.959 837.454C245.967 837.454 248.406 835.645 248.406 833.413C248.406 831.18 245.967 829.371 242.959 829.371C239.951 829.371 237.512 831.18 237.512 833.413C237.512 835.645 239.951 837.454 242.959 837.454Z" fill="#F25638"/>
<g opacity="0.5">
<g opacity="0.5">
<path opacity="0.5" d="M229.078 829.019C228.375 827.262 226.618 826.032 224.685 826.032C222.753 826.032 220.996 827.262 220.293 829.019" stroke="#160647" stroke-miterlimit="10" stroke-linecap="round"/>
<path opacity="0.5" d="M243.135 829.019C242.432 827.262 240.675 826.032 238.742 826.032C236.809 826.032 235.052 827.262 234.349 829.019" stroke="#160647" stroke-miterlimit="10" stroke-linecap="round"/>
</g>
<path opacity="0.5" d="M220.82 837.278C223.104 841.144 227.145 843.78 232.065 843.78C236.809 843.78 241.026 841.144 243.31 837.278" stroke="#160647" stroke-miterlimit="10" stroke-linecap="round"/>
</g>
<path d="M1250.28 1074.49H194.816C187.085 1074.49 180.76 1068.17 180.76 1060.44V989.975C180.76 982.244 187.085 975.918 194.816 975.918H1250.46C1258.19 975.918 1264.51 982.244 1264.51 989.975V1060.44C1264.34 1068.17 1258.19 1074.49 1250.28 1074.49Z" fill="#47BEB9"/>
<path d="M614.225 1028.11C614.225 1018.62 621.429 1012.47 629.512 1012.47C637.77 1012.47 641.987 1017.56 643.217 1022.31L637.77 1024.06C637.067 1021.25 634.783 1018.09 629.512 1018.09C625.119 1018.09 620.375 1021.25 620.375 1028.11C620.375 1034.43 624.768 1037.95 629.687 1037.95C634.783 1037.95 637.243 1034.61 638.121 1031.8L643.568 1033.38C642.514 1037.95 638.121 1043.57 629.687 1043.57C621.078 1043.74 614.225 1037.59 614.225 1028.11Z" fill="white"/>
<path d="M659.03 1027.93C658.327 1027.75 657.8 1027.75 657.273 1027.75C654.462 1027.75 652.002 1029.16 652.002 1033.55V1043.04H646.379V1022.31H651.826V1025.47C653.056 1022.66 656.043 1022.31 657.8 1022.31C658.327 1022.31 658.679 1022.31 659.03 1022.31V1027.93Z" fill="white"/>
<path d="M680.291 1037.07C679.236 1040.58 675.898 1043.57 670.802 1043.57C665.18 1043.57 660.084 1039.53 660.084 1032.5C660.084 1025.82 665.004 1021.6 670.275 1021.6C676.601 1021.6 680.466 1025.64 680.466 1032.32C680.466 1033.2 680.466 1033.9 680.466 1034.08H665.707C665.883 1036.89 668.167 1038.82 670.978 1038.82C673.614 1038.82 675.019 1037.59 675.722 1035.66L680.291 1037.07ZM675.019 1030.39C675.019 1028.28 673.614 1026.35 670.451 1026.35C667.464 1026.35 665.883 1028.46 665.883 1030.39H675.019Z" fill="white"/>
<path d="M688.9 1031.09L693.996 1030.39C695.226 1030.21 695.577 1029.69 695.577 1028.98C695.577 1027.58 694.523 1026.35 692.063 1026.35C689.603 1026.35 688.197 1027.93 688.022 1029.69L683.102 1028.63C683.453 1025.47 686.44 1021.78 692.063 1021.78C698.564 1021.78 701.024 1025.47 701.024 1029.69V1039.88C701.024 1040.93 701.199 1042.51 701.199 1043.22H696.104C695.928 1042.69 695.928 1041.46 695.928 1040.76C694.874 1042.34 692.941 1043.92 689.779 1043.92C685.386 1043.92 682.575 1040.93 682.575 1037.59C682.75 1033.73 685.386 1031.62 688.9 1031.09ZM695.577 1034.61V1033.73L690.833 1034.43C689.427 1034.61 688.197 1035.49 688.197 1037.07C688.197 1038.3 689.076 1039.53 690.833 1039.53C693.293 1039.53 695.577 1038.3 695.577 1034.61Z" fill="white"/>
<path d="M712.445 1022.31H716.662V1027.23H712.445V1035.84C712.445 1037.59 713.323 1038.3 714.905 1038.3C715.607 1038.3 716.31 1038.3 716.662 1038.12V1042.69C716.134 1042.87 715.08 1043.22 713.499 1043.22C709.458 1043.22 706.998 1040.76 706.998 1036.89V1027.23H703.308V1022.31H704.362C706.471 1022.31 707.525 1020.9 707.525 1018.97V1015.98H712.62V1022.31H712.445Z" fill="white"/>
<path d="M738.625 1037.07C737.571 1040.58 734.232 1043.57 729.137 1043.57C723.514 1043.57 718.419 1039.53 718.419 1032.5C718.419 1025.82 723.338 1021.6 728.61 1021.6C734.935 1021.6 738.801 1025.64 738.801 1032.32C738.801 1033.2 738.801 1033.9 738.801 1034.08H724.041C724.217 1036.89 726.501 1038.82 729.312 1038.82C731.948 1038.82 733.354 1037.59 734.056 1035.66L738.625 1037.07ZM733.529 1030.39C733.529 1028.28 732.124 1026.35 728.961 1026.35C725.974 1026.35 724.393 1028.46 724.393 1030.39H733.529Z" fill="white"/>
<path d="M750.397 1028.11C750.397 1018.62 757.601 1012.47 765.683 1012.47C773.942 1012.47 778.159 1017.56 779.388 1022.31L773.942 1024.06C773.239 1021.25 770.955 1018.09 765.683 1018.09C761.291 1018.09 756.547 1021.25 756.547 1028.11C756.547 1034.43 760.939 1037.95 765.859 1037.95C770.955 1037.95 773.414 1034.61 774.293 1031.8L779.74 1033.38C778.686 1037.95 774.293 1043.57 765.859 1043.57C757.25 1043.74 750.397 1037.59 750.397 1028.11Z" fill="white"/>
<path d="M802.406 1032.67C802.406 1039 797.662 1043.74 791.512 1043.74C785.362 1043.74 780.618 1039.17 780.618 1032.67C780.618 1026.35 785.362 1021.6 791.512 1021.6C797.662 1021.6 802.406 1026.17 802.406 1032.67ZM796.783 1032.67C796.783 1028.81 794.323 1026.7 791.512 1026.7C788.701 1026.7 786.241 1028.63 786.241 1032.67C786.241 1036.54 788.701 1038.65 791.512 1038.65C794.148 1038.65 796.783 1036.54 796.783 1032.67Z" fill="white"/>
<path d="M805.744 1051.12V1022.31H811.191V1024.77C812.07 1023.19 814.354 1021.78 817.517 1021.78C823.666 1021.78 827.005 1026.35 827.005 1032.5C827.005 1038.82 823.139 1043.39 817.165 1043.39C814.354 1043.39 812.245 1042.34 811.191 1040.93V1050.95H805.744V1051.12ZM816.462 1026.88C813.651 1026.88 811.191 1028.98 811.191 1032.67C811.191 1036.36 813.475 1038.47 816.462 1038.47C819.274 1038.47 821.558 1036.36 821.558 1032.67C821.558 1028.98 819.274 1026.88 816.462 1026.88Z" fill="white"/>
<path d="M830.694 1051.3L835.614 1040.58L826.829 1022.48H833.154L838.601 1034.61L843.697 1022.48H849.671L836.668 1051.48H830.694V1051.3Z" fill="white"/>
<path d="M1214.61 826.561H1184.74L1199.68 845.889L1214.61 826.561Z" fill="#ADAAC0"/>
<path d="M845.629 580.033H843.872V631.166H845.629V580.033Z" fill="#160647"/>
<g opacity="0.5">
<g opacity="0.5">
<path opacity="0.5" d="M858.456 662.092C895.137 662.092 924.873 632.355 924.873 595.672C924.873 558.989 895.137 529.252 858.456 529.252C821.775 529.252 792.039 558.989 792.039 595.672C792.039 632.355 821.775 662.092 858.456 662.092Z" fill="#F7D04F"/>
</g>
</g>
<path d="M894.124 683.88C891.664 683.88 889.556 682.474 888.502 680.19L877.959 656.644L870.58 663.321C869.877 664.024 868.998 664.376 868.12 664.376C866.011 664.376 864.254 662.618 864.254 660.51V616.757C864.254 614.121 866.363 612.013 869.174 612.013C870.58 612.013 871.81 612.54 872.688 613.594L903.964 646.628C905.018 647.683 905.369 649.264 904.666 650.67C903.964 652.076 902.734 652.954 901.152 652.954H889.732L899.747 675.27C900.45 676.851 900.45 678.433 899.922 680.014C899.395 681.596 898.165 682.826 896.76 683.353C895.881 683.528 895.003 683.88 894.124 683.88Z" fill="#160647"/>
<path d="M869.174 613.594C869.877 613.594 870.755 613.946 871.458 614.473L902.734 647.507C903.964 648.737 903.085 651.021 901.328 651.021H887.272L898.341 675.797C899.395 678.081 898.341 680.541 896.057 681.596C895.53 681.771 894.827 681.947 894.3 681.947C892.543 681.947 890.961 680.893 890.259 679.311L878.662 653.481L869.525 661.74C869.174 662.091 868.647 662.267 868.12 662.267C867.066 662.267 866.011 661.389 866.011 660.159V616.406C866.187 614.824 867.593 613.594 869.174 613.594ZM869.174 610.08C865.484 610.08 862.497 613.067 862.497 616.581V660.334C862.497 663.321 864.957 665.957 868.12 665.957C869.525 665.957 870.755 665.43 871.81 664.552L877.256 659.631L886.745 681.069C887.974 683.88 890.786 685.813 893.948 685.813C895.003 685.813 896.233 685.637 897.111 685.11C899.044 684.231 900.45 682.65 901.328 680.717C902.031 678.784 902.031 676.676 901.152 674.743L892.191 654.887H900.801C903.085 654.887 905.018 653.657 905.896 651.549C906.775 649.44 906.424 647.156 904.842 645.574L873.567 612.54C872.688 610.783 871.107 610.08 869.174 610.08Z" fill="white"/>
<defs>
<filter id="filter0_dd_35_223" x="0.340637" y="18.4502" width="1439.32" height="1233.1" filterUnits="userSpaceOnUse" color-interpolation-filters="sRGB">
<feFlood flood-opacity="0" result="BackgroundImageFix"/>
<feColorMatrix in="SourceAlpha" type="matrix" values="0 0 0 0 0 0 0 0 0 0 0 0 0 0 0 0 0 0 127 0" result="hardAlpha"/>
<feMorphology radius="5" operator="erode" in="SourceAlpha" result="effect1_dropShadow_35_223"/>
<feOffset dy="20"/>
<feGaussianBlur stdDeviation="12.5"/>
<feColorMatrix type="matrix" values="0 0 0 0 0 0 0 0 0 0 0 0 0 0 0 0 0 0 0.1 0"/>
<feBlend mode="normal" in2="BackgroundImageFix" result="effect1_dropShadow_35_223"/>
<feColorMatrix in="SourceAlpha" type="matrix" values="0 0 0 0 0 0 0 0 0 0 0 0 0 0 0 0 0 0 127 0" result="hardAlpha"/>
<feMorphology radius="5" operator="erode" in="SourceAlpha" result="effect2_dropShadow_35_223"/>
<feOffset dy="10"/>
<feGaussianBlur stdDeviation="5"/>
<feColorMatrix type="matrix" values="0 0 0 0 0 0 0 0 0 0 0 0 0 0 0 0 0 0 0.06 0"/>
<feBlend mode="normal" in2="effect1_dropShadow_35_223" result="effect2_dropShadow_35_223"/>
<feBlend mode="normal" in="SourceGraphic" in2="effect2_dropShadow_35_223" result="shape"/>
</filter>
<linearGradient id="paint0_linear_35_223" x1="231.773" y1="802.155" x2="231.773" y2="861.917" gradientUnits="userSpaceOnUse">
<stop offset="0.2064" stop-color="#F7D04F"/>
<stop offset="0.8584" stop-color="#F3A63F"/>
</linearGradient>
</defs>
</svg>
